<mxfile host="app.diagrams.net" agent="Mozilla/5.0 (Macintosh; Intel Mac OS X 10.15; rv:132.0) Gecko/20100101 Firefox/132.0" version="25.0.3">
  <diagram name="Page-1" id="aaz-LNenK5XLFxuYNv68">
    <mxGraphModel dx="794" dy="408" grid="1" gridSize="10" guides="1" tooltips="1" connect="1" arrows="1" fold="1" page="1" pageScale="1" pageWidth="512" pageHeight="640" math="0" shadow="0">
      <root>
        <mxCell id="0" />
        <mxCell id="1" parent="0" />
        <mxCell id="pxrJhPeLCdRWbbSAXVPi-16" value="" style="shape=image;verticalLabelPosition=bottom;labelBackgroundColor=default;verticalAlign=top;aspect=fixed;imageAspect=0;image=data:image/png,iVBORw0KGgoAAAANSUhEUgAAAyIAAAIACAYAAAB+XtjXAAAgAElEQVR4Xu3dW4xd13kY4H2GQ5HU8CKJuli2nMCJSV1JixIpiaSkSEYT32JLMiVexMvwziE55xK0eYlMasjKQIE8xO5TkwIJDLQokKJAUKA20JcmaJwiaNI8yDBQyg9FnMSX2LItkyIpkbO61jqkNLpQGlmjvY/P+gZwSHHO2f/6v3+dPfNn77VXq9vthmrG1/T0dP6vkZGRmf/8lr/P9etSgHPnzlULFy6sNe5s8zC+ty8Lv/fnwq8cvzNnzlRjY2NXPL85/72VxuejnM/HO/7g9/vB2/L4fPh8XBb4Zf750UqNyFe+8pV3Owf4PgECBAgQIECAAAECBOZEoNfrVa34f8If/MEfzMkBHYQAAQIECBAgQIAAAQLvJvA7v/M7GpF3Q/J9AgQIECBAgAABAgTmVkAjMreejkaAAAECBAgQIECAwCwENCKzQPISAgQIECBAgAABAgTmVkAjMreejkaAAAECBAgQIECAwCwE3nMjcvpPTlSn/3jqtUMv2PDb1eKdv1eFV89X6Xuv/N2f5++l5wEv2TtVLd7z7CyG4SUECBAgQIAAAQIECJQk8J4akRc7j77WaMwW6ao1j1TX/dv/MduXex0BAgQIECBAgAABAgUIzLoRefOVkPdis3jviXhl5Ph7eYvXEiBAgAABAgQIECAwxAK5EZnNhobff6j1GkO6wpGudKSvH22/rbrw9/83/33m1Y90i1a6gpK+Rm9ZUV3/n04NMaPUCBAgQIAAAQIECPQF/vZv/3ZWFPfee++sXlfXi1qtVvU3f/M31ZXGlfJau3ZtFUJahPH+v/KGhu+1EfnQ/3w9+MwrJYvftCZkZvMy8z2vD/sb1aHWZ6s/Ovj1KvzhZ96SzXe+urFa0auqr7zwzar78fef7BWP8J2vVhtjoL+6/IINX6le+Ga3+iBD5lDfOFS1PvtHl6IerL4e/rB6q8Js8k6Oz1V3fNBOsxmK1xAgQIAAAQIEChdIv7C/W5Mxm9fUzZjGtH7jg9X/+uZfvmX87/S9X3Scs95Z/UpNxftvRJ6rvrWhqjZ/7c3NxqUmpdrwwTYiuQn502rzjF/iv3HoUFX94S/aFMyyFDnut6svXW4+4n9/9YVu1f2FOhGNyCzVvYwAAQIECBAg8IELzKbJmM1rPvCBvk2At2s4PogmJIWe9RqRD7IRqQ5W1bfu+Fr1zZmXPdLVgj+rqoN/9K0P8P/T/53qqxtXVN/+Uqje5oLMB1v7lN9zd8zRlReNyAdbLEcnQIAAAQIECMxeYDZNxmxeM/uIc/vKmY1HOvKVrpK836jvuxF5fwO4/Av0l6pvr/iz6vHXbk1KDcJ4VX0t/fuMW47edAvVwa9fbiAuHecrd1W9Xv9Wpw1feeH1xuZK73vzVYm3SeYbh1rV63dPXb6F7FK8r2+u/vSz/Vu60lh+91S6lax/g9eV41++Bat/xedbM8eZ3/nOubzjePJVnTfd7vaG3N/P7V/vr9LeTYAAAQIECBAoRWA2TcZsXtOk1+VmJI3h7W7Vmouxve9GZLZP07ryGpF+o7Hy91vVnz1+qbFIvzynPuSbK6vff23tQ/8X7LiQon/14g23VL3pl++89iK9NN1e9Q7vqy7H6a8H6a9JSY3E290ONvOqw6V4l9eSXFrr8Vrz8Zb4M5qp+L2Np373UpPUvyKTQr6xqZqxbuYNx5pZ8jePJ8X4WlWNz7zC86YrJW+IPRfTxzEIECBAgAABAh+sQFpAPZuvuVpAPZtY7/aa2TQZs3nNu8X5IL9fVCPSndEUvBCvQvSbkhm/SKfvz1xTEeXT1YG3vC6vMJ/l+1a89ZhveG861hsWlF9uUN58K9Q7/Hce94yF8Gl4b16cf+mqxV25yXqXY7/DeL61IXY0m698JShP1is8GOCDnMiOTYAAAQIECBAoSWA2TcZsXtOU2S/NrVlzdUWk+/FLt2N9Kd7u9Fy6GpKuUsyyoXinX97fUwPzTk3M5dvFLt/+NPMpVe/WiMxYlH6FGZWvxnz7S/HpYdWbnoB1JYM3jyfe5rVhQ/VXd6VjXFrxPotbz5qa4OISIECAAAECBIZVYDZNxmxe04TPL9Vi9XcCmt3je99421J6nO3r6yveejvUG2/NuvwL/jtdRXi7W7Nebwz6t2PdNePRuTOO9cKMBeVvuRVslo3IpTUbb1kL8o34lKwV8SlZ+QpO/xatP81XM164ciMyi/GkW9yeu+PyVZErrUNpYlqLSYAAAQIECBAoQ2A2TcZsXlO3Vt2P7531GpHvxQ0NL9+hN3NDwysBnfvz/1L99NiT+dvz71xfLf93r+3SMeMtb24g0i/kv1+t/OblR+e+6ftvWHg9cx3Hu9zOdMX3XRrKG253mrnQ/PU1HNWGg/HhXvEJXvkxw+/h1qz+4pM33p6Vb49KVz7iWpDLGq/dMvVOx57NeC69prq0F8rbxv6FnhFc92dBPAIECBAgQIDAL6WADQ1nV7ZZ76w+21uw3i7sst/7k2rRZ3bPbkReRYAAAQIECBAgQIDA0AvMemf1JPFi59Hqlb/78/eEctWaR6p0BcUXAQIECBAgQIAAAQIELgvMemf1y284/Scnq3P//T9UF/7hhXdUTLdjXf2FA9Wiz+6hTYAAAQIECBAgQIAAgTcIzHqNCDcCBAgQIECAAAECBAjMlYBGZK4kHYcAAQIECBAgQIAAgVkLaERmTeWFBAgQIECAAAECBAjMlYBGZK4kHYcAAQIECBAgQIAAgVkLaERmTeWFBAgQIECAAAECBAjMlYBGZK4kHYcAAQIECBAgQIAAgVkLaERmTeWFBAgQIECAAAECBAjMlYBGZK4kHYcAAQIECBAgQIAAgVkL5EZkYmIiXFj15Vm/yQsJECBAgAABAgQIECDwfgRGn3+masXt1cPpFcfez3G8lwABAgQIECBAgAABArMWWPzCv9aIzFrLCwkQIECAAAECBAgQmBMBjcicMDoIAQIECBAgQIAAAQLvRUAj8l60vJYAAQIECBAgQIAAgTkR0IjMCaODECBAgAABAgQIECDwXgQ0Iu9Fy2sJECBAgAABAgQIEJgTAY3InDA6CAECBAgQIECAAAEC70VAI/JetLyWAAECBAgQIECAAIE5EciNSLfbDWdWHp+TAzoIAQIECBAgQIAAAQIE3k1g7NRJjci7Ifk+AQIECBAgQIAAAQJzK5AbETurzy2qoxEgQIAAAQIECBAg8M4C1oiYIQQIECBAgAABAgQI1C6gEamdXEACBAgQIECAAAECBDQi5gABAgQIECBAgAABArULaERqJxeQAAECBAgQIECAAAGNiDlAgAABAgQIECBAgEDtAhqR2skFJECAAAECBAgQIEBAI2IOECBAgAABAgQIECBQu0BuRDZu3Bhuf/q/1h5cQAIECBAgQIAAAQIEyhTIGxre+i++GB564t+XKSBrAgQIECBAgAABAgRqF8iNyCc/+cnwa5v+c+3BBSRAgAABAgQIECBAoEwBa0TKrLusCRAgQIAAAQIECDQqoBFplF9wAgQIECBAgAABAmUKaETKrLusCRAgQIAAAQIECDQqoBFplF9wAgQIECBAgAABAmUKaETKrLusCRAgQIAAAQIECDQqoBFplF9wAgQIECBAgAABAmUKaETKrLusCRAgQIAAAQIECDQqoBFplF9wAgQIECBAgAABAmUK5A0Ne71eOL3iWJkCsiZAgAABAgQIECBAoHaBfiPSPhBO3/Zvag8uIAECBAgQIECAAAECZQrkW7PW/Nrt4d5/+ZdlCsiaAAECBAgQIECAAIHaBXIj8uiuTvj1+5+tPbiABAgQIECAAAECBAiUKZAbkc6+x8LL9/xxmQKyJkCAAAECBAgQIECgdoHciLQPHwhn77JGpHZ9AQkQIECAAAECBAgUKuDxvYUWXtoECBAgQIAAAQIEmhTQiDSpLzYBAgQIECBAgACBQgVyI/IrH/t4+K1/9deFEkibAAECBAgQIECAAIG6BVwRqVtcPAIECBAgQIAAAQIEKo2ISUCAAAECBAgQIECAQO0Co88/E3dW7/XC6RXHag8uIAECBAgQIECAAAECZQq4IlJm3WVNgAABAgQIECBAoFEBjUij/IITIECAAAECBAgQKFNAI1Jm3WVNgAABAgQIECBAoFEBjUij/IITIECAAAECBAgQKFNAI1Jm3WVNgAABAgQIECBAoFEBjUij/IITIECAAAECBAgQKFMgNyKTnW44d+vxMgVkTYAAAQIECBAgQIBA7QK5Efn4ytvCI91v1h5cQAIECBAgQIAAAQIEyhQYO3Wyat2y/tPh0zv+Y5kCsiZAgAABAgQIECBAoHaB3IjcfPPN4XNf+lbtwQUkQIAAAQIECBAgQKBMgXxr1mOPPRZu+K0/LlNA1gQIECBAgAABAgQI1C6QG5Et4+2w5L6p2oMLSIAAAQIECBAgQIBAmQK5EXli+2RYvuFEmQKyJkCAAAECBAgQIECgdoHciByZ7IZXbvf43tr1BSRAgAABAgQIECBQqIANDQstvLQJECBAgAABAgQINCmQG5FOtxdeXnmsyXGITYAAAQIECBAgQIBAQQK5Efns5snw4d+wRqSgukuVAAECBAgQIECAQKMCuRH59JNHwy2Pnmx0IIITIECAAAECBAgQIFCOQN7QcP9EJ1Srni0na5kSIECAAAECBAgQINCoQG5Edu7rhAX3aEQarYTgBAgQIECAAAECBAoSyLdmHZjohrDK43sLqrtUCRAgQIAAAQIECDQq4PG9jfILToAAAQIECBAgQKBMgdyIHG13w/nbXBEpcwrImgABAgQIECBAgED9ArkR2TLeDkvum6o/uogECBAgQIAAAQIECBQpkBuRbbvbYWydRqTIGSBpAgQIECBAgAABAg0I5EZkfH8nzF/jqVkN+AtJgAABAgQIECBAoEgBO6sXWXZJEyBAgAABAgQIEGhWIDciT+6YDNesP9HsSEQnQIAAAQIECBAgQKAYgbyh4aEjnXDxTrdmFVN1iRIgQIAAAQIECBBoWCA3Ipt3tcPS+6caHorwBAgQIECAAAECBAiUIpBvzdoan5q12FOzSqm5PAkQIECAAAECBAg0LmBn9cZLYAAECBAgQIAAAQIEyhPIjUi70wtnbz1WXvYyJkCAAAECBAgQIECgEYH+U7N2tsM1D0w1MgBBCRAgQIAAAQIECBAoTyA3Io9tmww3POjxveWVX8YECBAgQIAAAQIEmhHIjciuuLP6VXZWb6YCohIgQIAAAQIECBAoUCA3Ijv2dsLCe+0jUmD9pUyAAAECBAgQIECgEYHciBw83A3Tdx1vZACCEiBAgAABAgQIECBQnkBuRCYmJsKFVV8uL3sZEyBAgAABAgQIECDQiMDo889Urd0HOmH0brdmNVIBQQkQIECAAAECBAgUKJCviOw71Amt1RqRAusvZQIECBAgQIAAAQKNCNhZvRF2QQkQIECAAAECBAiULZAbkS3j7bDkvqmyJWRPgAABAgQIECBAgEBtArkReWpXOyy7XyNSm7pABAgQIECAAAECBAoX6D8162g3XLjD43sLnwvSJ0CAAAECBAgQIFCbQG5Entg+GZZvOFFbUIEIECBAgAABAgQIEChbIDciv7npaPjVT54sW0L2BAgQIECAAAECBAjUJpAbkf3x8b2Vx/fWhi4QAQIECBAgQIAAgdIFxk6drFrj+9th/pqp0i3kT4AAAQIECBAgQIBATQK5Edl3qBs3NLRYvSZzYQgQIECAAAECBAgUL5Bvzdq2px3G1roiUvxsAECAAAECBAgQIECgJgGP760JWhgCBAgQIECAAAECBF4XyI1Ir9cLp1cc40KAAAECBAgQIECAAIFaBFwRqYVZEAIECBAgQIAAAQIEZgrkRuQzTx0NH3nEPiKmBgECBAgQIECAAAEC9QjkRmTH3k5YeO+z9UQUhQABAgQIECBAgACB4gVyI9KNa0TOWCNS/GQAQIAAAQIECBAgQKAugdyIbN41GZbef6KumOIQIECAAAECBAgQIFC4QN7QUCNS+CyQPgECBAgQIECAAIGaBXIj8oVtk+HGB10RqdleOAIECBAgQIAAAQLFCuRbs7bHxeqLLFYvdhJInAABAgQIECBAgEDdAjY0rFtcPAIECBAgQIAAAQIEqv5Ts7rxqVkr7axuPhAgQIAAAQIECBAgUI9AbkS2jLfDkvum6okoCgECBAgQIECAAAECxQvkRuTJne1wzQMakeJnAwACBAgQIECAAAECNQnkRuRouxfO3+bWrJrMhSFAgAABAgQIECBQvIDF6sVPAQAECBAgQIAAAQIE6he4tFi9GxerH68/uogECBAgQIAAAQIECBQpkDc0PDrZCedvf7ZIAEkTIECAAAECBAgQIFC/QG5EPr91Mtz0kJ3V6+cXkQABAgQIECBAgECZAvnWrE07JsO16zUiZU4BWRMgQIAAAQIECBCoXyA3Ip9+6mi45ZGT9UcXkQABAgQIECBAgACBIgVyI7LvUCe0VlsjUuQMkDQBAgQIECBAgACBBgQ8vrcBdCEJECBAgAABAgQIlC6gESl9BsifAAECBAgQIECAQAMCuRF5Yns7LN8w1UB4IQkQIECAAAECBAgQKFEgNyKf2zIZbn7YU7NKnAByJkCAAAECBAgQINCEQG5E9h7shJFPWKzeRAHEJECAAAECBAgQIFCiQP+KyObD4ebfeK7E/OVMgAABAgQIECBAgEADAqPPP1O1ut1eOLPyWAPhhSRAgAABAgQIECBAoEQBT80qsepyJkCAAAECBAgQINCwQG5Edh/ohNG7rRFpuBbCEyBAgAABAgQIEChGIDciO/d1woJ7NCLFVF2iBAgQIECAAAECBBoWyI3IlvF2WHLfVMNDEZ4AAQIECBAgQIAAgVIEciOyeVc7LL1fI1JK0eVJgAABAgQIECBAoGmB3IjsifuIzLOPSNO1EJ8AAQIECBAgQIBAMQK5ERnf3wnz11gjUkzVJUqAAAECBAgQIECgYYH+GpFdk2HJ/ScaHorwBAgQIECAAAECBAiUIjB26mTVeuLpybB8o0aklKLLkwABAgQIECBAgEDTArkR2bq7HRavm2p6LOITIECAAAECBAgQIFCIQL41q9vrhTMrjhWSsjQJECBAgAABAgQIEGhaIDcivdiInNaINF0L8QkQIECAAAECBAgUI5AbkW3x1qwxt2YVU3SJEiBAgAABAgQIEGhaIDciX9zRDtetn2p6LOITIECAAAECBAgQIFCIQG5EDkx0Q1h1vJCUpUmAAAECBAgQIECAQNMCuRHZta8TrrrHhoZNF0N8AgQIECBAgAABAqUIXNrQsB03NJwqJWd5EiBAgAABAgQIECDQsEBuRD795NFwy6MnGx6K8AQIECBAgAABAgQIlCKQNzQ8crQTXrnDrVmlFF2eBAgQIECAAAECBJoWyI2IfUSaLoP4BAgQIECAAAECBMoSyLdm7YyL1RdYrF5W5WVLgAABAgQIECBAoEGB3IgcOtINF+/0+N4G6yA0AQIECBAgQIAAgaIE7CNSVLklS4AAAQIECBAgQGAwBHIj8vSeTrh6rcXqg1ESoyBAgAABAgQIECAw/AK5Edk63g6L75sa/mxlSIAAAQIECBAgQIDAQAjkRmTzrnZYakPDgSiIQRAgQIAAAQIECBAoQaB/RWR3vCKyzhWREgouRwIECBAgQIAAAQKDIJAbkSd3ToZrHjgxCOMxBgIECBAgQIAAAQIEChDIGxpuiWtEllgjUkC5pUiAAAECBAgQIEBgMATsrD4YdTAKAgQIECBAgAABAkUJ5Fuzer1eOL3iWFGJS5YAAQIECBAgQIAAgeYENCLN2YtMgAABAgQIECBAoFgBjUixpZc4AQIECBAgQIAAgeYEciNy6Eg3XLzzeHOjEJkAAQIECBAgQIAAgaIEciPymaeOho88crKoxCVLgAABAgQIECBAgEBzArkReXpPJ1y99tnmRiEyAQIECBAgQIAAAQJFCeRG5PDRbnj1DrdmFVV5yRIgQIAAAQIECBBoUCA3Itt2t8PYuqkGhyE0AQIECBAgQIAAAQIlCeRGZGJiIlxY9eWS8pYrAQIECBAgQIAAAQINCow+/0zV2j/RDdUqt2Y1WAehCRAgQIAAAQIECBQlkK+IfPLxo+HXftNTs4qqvGQJECBAgAABAgQINChw6alZ7fjUrKkGhyE0AQIECBAgQIAAAQIlCeRGZN+hTmit9vjekgovVwIECBAgQIAAAQJNCuRGZNf+TrhqjUakyUKITYAAAQIECBAgQKAkgdyI9Hq9cHrFsZLylisBAgQIECBAgAABAg0K5EZky3g7LLlvqsFhCE2AAAECBAgQIECAQEkCuRHZtGMyXLv+REl5y5UAAQIECBAgQIAAgQYFciPS6XTDy7faR6TBOghNgAABAgQIECBAoCiBsVMnq9buA+0wevdUUYlLlgABAgQIECBAgACB5gRyIzIen5o131OzmquCyAQIECBAgAABAgQKE8i3Zj2xvR2Wb3BFpLDaS5cAAQIECBAgQIBAYwK5EdmxtxMW3msfkcaqIDABAgQIECBAgACBwgTsI1JYwaVLgAABAgQIECBAYBAEciPS7vTC2VttaDgIBTEGAgQIECBAgAABAiUI5EZk8652WHr/VAn5ypEAAQIECBAgQIAAgQEQcEVkAIpgCAQIECBAgAABAgRKE8iNiMf3llZ2+RIgQIAAAQIECBBoVuDSU7Pa8alZU82ORHQCBAgQIECAAAECBIoRyBsabtvTDmNrNSLFVF2iBAgQIECAAAECBBoWyI3I57dOhpseOtHwUIQnQIAAAQIECBAgQKAUgXxr1pM72+GaB1wRKaXo8iRAgAABAgQIECDQtEBuRPYd6oTWajurN10M8QkQIECAAAECBAiUIuCKSCmVlicBAgQIECBAgACBARLIjcgT2yfD8g3WiAxQXQyFAAECBAgQIECAwFAL5Ebkqbiz+jI7qw91oSVHgAABAgQIECBAYJAEciPS7fbCmZXHBmlcxkKAAAECBAgQIECAwBALXFqs3o2L1Y8PcZpSI0CAAAECBAgQIEBgkARyIzK+vx3mr5kapHEZCwECBAgQIECAAAECQyyQNzTcfaAdRu/WiAxxnaVGgAABAgQIECBAYKAEciOyaUc7XLteIzJQlTEYAgQIECBAgAABAkMs0H9879PtsHyjRmSI6yw1AgQIECBAgAABAgMlYEPDgSqHwRAgQIAAAQIECBAoQyA3Ip34+N6XPb63jIrLkgABAgQIECBAgMAACORGpNfrhdMr7CMyAPUwBAIECBAgQIAAAQJFCORGZNe+TrjqnmeLSFiSBAgQIECAAAECBAg0L5AbEU/Nar4QRkCAAAECBAgQIECgJIHciBw+2g2v3mFn9ZIKL1cCBAgQIECAAAECTQrkRmTiSDdcuFMj0mQhxCZAgAABAgQIECBQkkBuRB7fOhGuf+jLJeUtVwIECBAgQIAAAQIEGhQYff4Zi9Ub9BeaAAECBAgQIECAQJEC+YrIF7ZOhhsfOlEkgKQJECBAgAABAgQIEKhfwFOz6jcXkQABAgQIECBAgEDxArkROTDRDWGVxerFzwYABAgQIECAAAECBGoSsLN6TdDCECBAgAABAgQIECDwukBuRHbu7YQF99pZ3cQgQIAAAQIECBAgQKAegf6tWYc7IdylEamHXBQCBAgQIECAAAECBHIjsnV3OyxeN0WDAAECBAgQIECAAAECtQjkRmTL+GRYcp/H99YiLggBAgQIECBAgAABAtXYqZNVa3x/O8xf44qI+UCAAAECBAgQIECAQD0CuRH51JNHw0cfPVlPRFEIECBAgAABAgQIECheIN+atT0+NWuRp2YVPxkAECBAgAABAgQIEKhLwD4idUmLQ4AAAQIECBAgQIDAawL9KyJ74hWRtR7fa14QIECAAAECBAgQIFCPQG5EDh3phot3Hq8noigECBAgQIAAAQIECBQv4Nas4qcAAAIECBAgQIAAAQL1C2hE6jcXkQABAgQIECBAgEDxArkRGd/fifuIWCNS/GwAQIAAAQIECBAgQKAmgdyI2EekJm1hCBAgQIAAAQIECBDIAnlDw70H22HkE1NICBAgQIAAAQIECBAgUItAbkT2HeqG1mpPzapFXBACBAgQIECAAAECBKp8a9aufZ1w1T3WiJgPBAgQIECAAAECBAjUI5AbkSe2T4blG07UE1EUAgQIECBAgAABAgSKF8iNyNN72uHqtVPFYwAgQIAAAQIECBAgQKAegdyIHG13w/nbrBGph1wUAgQIECBAgAABAgRyI7JlvB2W3OeKiOlAgAABAgQIECBAgEA9ArkR6XR74eWVx+qJKAoBAgQIECBAgAABAsULXLo1qxdvzdKIFD8bABAgQIAAAQIECBCoSSA3Ipt3TYal93tqVk3mwhAgQIAAAQIECBAoXiBvaLhpx2S4dr1GpPjZAIAAAQIECBAgQIBATQK5Edm6ux0Wr5uqKaQwBAgQIECAAAECBAiULpBvzdqxtx0W3qsRKX0yyJ8AAQIECBAgQIBAXQK5ERnf3wnz1zxbV0xxCBAgQIAAAQIECBAoXCA3Ipt2tOMaEVdECp8L0idAgAABAgQIECBQm0BuRPYe7ISRT7giUpu6QAQIECBAgAABAgQKF8iNyL5DndBarREpfC5InwABAgQIECBAgEBtAtaI1EYtEAECBAgQIECAAAEClwVyI9Lr9cLpFXZWNy0IECBAgAABAgQIEKhHQCNSj7MoBAgQIECAAAECBAjMEMiNyJ79E2Hemi+DIUCAAAECBAgQIECAQC0Co88/U7U+89Rk+MgjJ2oJKAgBAgQIECBAgAABAgTyFZGDh7th+q7jNAgQIECAAAECBAgQIFCLQG5Etu5uh8XrpmoJKAgBAgQIECBAgAABAgRyI3Jkshteud0VEdOBAL1PT8UAAB9XSURBVAECBAgQIECAAIF6BHIj8tnNk+HDv2GNSD3kohAgQIAAAQIECBAgkBuRLePtsOS+KRoECBAgQIAAAQIECBCoRSA3IvsOdUNrtVuzahEXhAABAgQIECBAgACBqr9YPV4RWeyKiOlAgAABAgQIECBAgEBNAm7NqglaGAIECBAgQIAAAQIEXhcYO3Wyam3f0w6L1k5xIUCAAAECBAgQIECAQC0CuRFpd3rh7K3HagkoCAECBAgQIECAAAECBNyaZQ4QIECAAAECBAgQIFC7QG5EduzthIX3Plt7cAEJECBAgAABAgQIEChTIDcij22bDDc8aEPDMqeArAkQIECAAAECBAjUL5AbkV6vF06vsEakfn4RCRAgQIAAAQIECJQpkBuRAxPdEFbZ0LDMKSBrAgQIECBAgAABAvUL5EZk575OWHCPNSL184tIgAABAgQIECBAoEyB3IgcOtINF+90RaTMKSBrAgQIECBAgAABAvUL5Ebk81uOhpsePll/dBEJECBAgAABAgQIEChSIG9ouHNfO96aNVUkgKQJECBAgAABAgQIEKhfIDci23a3w9g6jUj9/CISIECAAAECBAgQKFMg35q1PW5ouMiGhmXOAFkTIECAAAECBAgQaEBAI9IAupAECBAgQIAAAQIEShfIjcjB+NSsaU/NKn0uyJ8AAQIECBAgQIBAbQJ2Vq+NWiACBAgQIECAAAECBC4L5EZk76FuGFltHxHTggABAgQIECBAgACBegRyI7L7QCeM3m1n9XrIRSFAgAABAgQIECBAIDcijz89Ga7feIIGAQIECBAgQIAAAQIEahHIjcimHZPh2vUakVrEBSFAgAABAgQIECBAoMobGu6KO6tfZWd104EAAQIECBAgQIAAgZoEciOyZbwdltw3VVNIYQgQIECAAAECBAgQKF0g35q1a18nXhGxWL30ySB/AgQIECBAgAABAnUJeGpWXdLiECBAgAABAgQIECDwmoANDU0GAgQIECBAgAABAgRqF8iNSLvTC2dvPVZ7cAEJECBAgAABAgQIEChTIDciFquXWXxZEyBAgAABAgQIEGhKwIaGTcmLS4AAAQIECBAgQKBggdyIPL2nHa5eO1Uwg9QJECBAgAABAgQIEKhTwGL1OrXFIkCAAAECBAgQIEAgC+RGZOVdD4SHD/83JAQIECBAgAABAgQIEKhFYPT5Z6rWoSPdcPHO47UEFIQAAQIECBAgQIAAAQJuzTIHCBAgQIAAAQIECBCoXSA3InsPdcLI6mdrDy4gAQIECBAgQIAAAQJlCuRG5FObjoaPfvJkmQKyJkCAAAECBAgQIECgdoHciByY6IawyhqR2vUFJECAAAECBAgQIFCoQG5EOt1eeHnlsUIJpE2AAAECBAgQIECAQN0CuRH5/NbJcNNDJ+qOLR4BAgQIECBAgAABAoUK5EZkz4FOmHe3xeqFzgFpEyBAgAABAgQIEKhdIDci3W43nFlpjUjt+gISIECAAAECBAgQKFRg7NTJqrVpx2S4dr1bswqdA9ImQIAAAQIECBAgULtAbkQef7odrt84VXtwAQkQIECAAAECBAgQKFMg35q1O64RGbVGpMwZIGsCBAgQIECAAAECDQjkRqTX64XTKzy+twF/IQkQIECAAAECBAgUKZAbkYOHu2H6LovVi5wBkiZAgAABAgQIECDQgEBuRL64ox2uWz/VQHghCRAgQIAAAQIECBAoUSA3Il+IGxreaEPDEusvZwIECBAgQIAAAQKNCORGpN3phbO3WiPSSAUEJUCAAAECBAgQIFCgQG5Edu7rhAX32Fm9wPpLmQABAgQIECBAgEAjArkROTDRCWGVRqSRCghKgAABAgQIECBAoEABO6sXWHQpEyBAgAABAgQIEGhaIDciv71lMnzo4RNNj0V8AgQIECBAgAABAgQKEbCzeiGFliYBAgQIECBAgACBQRLIjcj2Pe2waO3UII3LWAgQIECAAAECBAgQGGKB3IhMtnvh3G0e3zvEdZYaAQIECBAgQIAAgYESyI3I40+3w/UbXREZqMoYDAECBAgQIECAAIEhFujfmrW3Exbd6/G9Q1xnqREgQIAAAQIECBAYKIHciBxtd8P5244P1MAMhgABAgQIECBAgACB4RXIjcjnt06Gmx7y+N7hLbPMCBAgQIAAAQIECAyWQG5E9hzohHl3uzVrsEpjNAQIECBAgAABAgSGVyBvaNjtdsOZlW7NGt4yy4wAAQIECBAgQIDAYAlcakR6sRHx+N7BKo3RECBAgAABAgQIEBhegXxr1he3T4brNlgjMrxllhkBAgQIECBAgACBwRLIjciO+PjehR7fO1iVMRoCBAgQIECAAAECQyyQG5FDR7rh4p3WiAxxnaVGgAABAgQIECBAYKAE+hsa7okbGq711KyBqozBECBAgAABAgQIEBhigdyI9Hq9cHqFxepDXGepESBAgAABAgQIEBgogdyI7DvUDa3Vbs0aqMoYDAECBAgQIECAAIEhFsiNyPj+Tpi/xq1ZQ1xnqREgQIAAAQIECBAYKIHciDy2bTLc8KDH9w5UZQyGAAECBAgQIECAwBAL5Ebk008eDrc8+twQpyk1AgQIECBAgAABAgQGSWD0+Weq1lO72mHZ/VODNC5jIUCAAAECBAgQIEBgiAXyFZF2pxfO3uqpWUNcZ6kRIECAAAECBAgQGCiB3IgcmOiGsMpTswaqMgZDgAABAgQIECBAYIgFciOyc18nLLjHU7OGuM5SI0CAAAECBAgQIDBQAm7NGqhyGAwBAgQIECBAgACBMgQ8vreMOsuSAAECBAgQIECAwEAJ5EZkV7w16yq3Zg1UYQyGAAECBAgQIECAwDAL5Eak1+uF0ys8NWuYCy03AgQIECBAgAABAoMkkBuRzbsmw9L77aw+SIUxFgIECBAgQIAAAQLDLDB26mTc0HDnZFj2gEZkmAstNwIECBAgQIAAAQKDJNBvROysPkg1MRYCBAgQIECAAAECQy+Qb836/JbJcNPDrogMfbUlSIAAAQIECBAgQGBABPo7qx+OO6vfZWf1AamJYRAgQIAAAQIECBAYegFPzRr6EkuQAAECBAgQIECAwOAJ5EZkz4FOmHf3s4M3OiMiQIAAAQIECBAgQGAoBXIjsmnHZLh2vTUiQ1lhSREgQIAAAQIECBAYQIHciOyf6IZqlTUiA1gfQyJAgAABAgQIECAwlAK5ETna7obzt2lEhrLCkiJAgAABAgQIECAwgAK5EfnC1slw40NuzRrA+hgSAQIECBAgQIAAgaEUyBsaju9vh/lrpoYyQUkRIECAAAECBAgQIDB4ArkRmWz3wrnbjg3e6IyIAAECBAgQIECAAIGhFMi3Zm3e1Q5L73dFZCgrLCkCBAgQIECAAAECAyhgH5EBLIohESBAgAABAgQIEBh2gdyIfG7zZLj5NyxWH/Ziy48AAQIECBAgQIDAoAjkRmTb7nYYWzc1KGMyDgIECBAgQIAAAQIEhlwgNyK9Xi+cXmGx+pDXWnoECBAgQIAAAQIEBkZAIzIwpTAQAgQIECBAgAABAuUI5EbkwEQ3hFV2Vi+n7DIlQIAAAQIECBAg0KzApcXqR+Ni9ZPNjkR0AgQIECBAgAABAgSKEcgbGn5x+2S4boOnZhVTdYkSIECAAAECBAgQaFggNyJb41OzFntqVsOlEJ4AAQIECBAgQIBAOQIWq5dTa5kSIECAAAECBAgQGBgBjcjAlMJACBAgQIAAAQIECJQjkBuRbtxH5Ix9RMqpukwJECBAgAABAgQINCyQG5HHtk2GGx60WL3hWghPgAABAgQIECBAoBiB3IjsPdgJI594tpikJUqAAAECBAgQIECAQLMC1og06y86AQIECBAgQIAAgSIFXBEpsuySJkCAAAECBAgQINCsQG5EPr91Mtz0kDUizZZCdAIECBAgQIAAAQLlCORG5Kmdh8OyB54rJ2uZEiBAgAABAgQIECDQqMDo889UrSeengzLN7oi0mglBCdAgAABAgQIECBQkEC+IjLZ7oZztx0vKG2pEiBAgAABAgQIECDQpMClxerd+PhejUiThRCbAAECBAgQIECAQEkCuRF5cmc7XPPAVEl5y5UAAQIECBAgQIAAgQYFciOy71AntFbb0LDBOghNgAABAgQIECBAoCgBGxoWVW7JEiBAgAABAgQIEBgMgf4akXhFZMQVkcGoiFEQIECAAAECBAgQKECgv6Hhlrih4cMe31tAvaVIgAABAgQIECBAYCAEciNydLITzt9ujchAVMQgCBAgQIAAAQIECBQgMHbqZNXqdrvhzEqP7y2g3lIkQIAAAQIECBAgMBACuRF5alc7LLt/aiAGZBAECBAgQIAAAQIECAy/QL416wtbJ8OND1kjMvzlliEBAgQIECBAgACBwRDIjciBiW4Iq9yaNRglMQoCBAgQIECAAAECwy+QG5GJo91w4Q6NyPCXW4YECBAgQIAAAQIEBkMgNyLb97TDorVTgzEioyBAgAABAgQIECBAYOgFciOydXc7LF6nERn6akuQAAECBAgQIECAwIAI5EbkyZ3tcM0DGpEBqYlhECBAgAABAgQIEBh6gdyI9Hq9cHrFsaFPVoIECBAgQIAAAQIECAyGQG5EjsSd1V+xs/pgVMQoCBAgQIAAAQIECBQgkDc0/O0tR8OHHj5ZQLpSJECAAAECBAgQIEBgEARyI3LwSDdM3+nxvYNQEGMgQIAAAQIECBAgUIJAvjVrfH8nzF/zbAn5ypEAAQIECBAgQIAAgQEQyI3Itt2dMLZOIzIA9TAEAgQIECBAgAABAkUI5EZk94FOGL1bI1JExSVJgAABAgQIECBAYAAEPL53AIpgCAQIECBAgAABAgRKE8iNyI69nbDwXldESiu+fAkQIECAAAECBAg0JZAbkce2TYYbHjzR1BjEJUCAAAECBAgQIECgMIHciDy1qx2W3T9VWOrSJUCAAAECBAgQIECgKYHciGzd3Q6L12lEmiqCuAQIECBAgAABAgRKE8gbGm6LjciYRqS02suXAAECBAgQIECAQGMCuRHZe7ATRj5hsXpjVRCYAAECBAgQIECAQGECnppVWMGlS4AAAQIECBAgQGAQBGxoOAhVMAYCBAgQIECAAAEChQnkRmR8fyfMX+PWrMJqL10CBAgQIECAAAECjQnkRmTLeDssuW+qsUEITIAAAQIECBAgQIBAWQK5Eel0e+HllcfKyly2BAgQIECAAAECBAg0JpAbkb2H4lOzVrs1q7EqCEyAAAECBAgQIECgMAFPzSqs4NIlQIAAAQIECBAgMAgCdlYfhCoYAwECBAgQIECAAIHCBHIjsv/ARKju/nJhqUuXAAECBAgQIECAAIGmBEaff6ZqPb5tMlz/4ImmxiAuAQIECBAgQIAAAQKFCeQrIpt2tMO166cKS126BAgQIECAAAECBAg0JWBn9abkxSVAgAABAgQIECBQsEBuRI5MdsMrtx8vmEHqBAgQIECAAAECBAjUKZAbkc272mHp/VN1xhWLAAECBAgQIECAAIGCBTQiBRdf6gQIECBAgAABAgSaEsiNyMEj3TB9p1uzmiqCuAQIECBAgAABAgRKE8iNyLbd7TC2bqq03OVLgAABAgQIECBAgEBDArkR2XuwHUY+oRFpqAbCEiBAgAABAgQIEChOYOzUyaq1dbwdFt+nESmu+hImQIAAAQIECBAg0JBAbkS27+mERWufbWgIwhIgQIAAAQIECBAgUJpAvjXr6diIXK0RKa328iVAgAABAgQIECDQmEBuRL64ox2uWz/V2CAEJkCAAAECBAgQIECgLIHciBxt98L5246VlblsCRAgQIAAAQIECBBoTCA3Ir1eL5xeoRFprAoCEyBAgAABAgQIEChMoL+zenxq1lJPzSqs9NIlQIAAAQIECBAg0JxAbkQ+t2Uy3PzwieZGITIBAgQIECBAgAABAkUJ9Dc0PNQNI6uPF5W4ZAkQIECAAAECBAgQaE4gNyLdbjecWakRaa4MIhMgQIAAAQIECBAoSyBvaPj07na4et1UWZnLlgABAgQIECBAgACBxgRyIzJxtBsu3OGKSGNVEJgAAQIECBAgQIBAYQL51qwvbJ0MNz5ksXphtZcuAQIECBAgQIAAgcYEciPyqSePho8+erKxQQhMgAABAgQIECBAgEBZArkROXi4G6bvcmtWWaWXLQECBAgQIECAAIHmBOys3py9yAQIECBAgAABAgSKFciNyOG4WP1Vi9WLnQQSJ0CAAAECBAgQIFC3QG5EtsbH9y72+N667cUjQIAAAQIECBAgUKzApQ0Ne3FDw2PFIkicAAECBAgQIECAAIF6BXIjMr6/Heavmao3smgECBAgQIAAAQIECBQrkDc03L6nHRat1YgUOwskToAAAQIECBAgQKBmgdyI7NjbCQvvfbbm0MIRIECAAAECBAgQIFCqQL41a+/BThj5hEak1EkgbwIECBAgQIAAAQJ1C+RGZNOOdrh2/VTdscUjQIAAAQIECBAgQKBQgdyIbN7VDkvv14gUOgekTYAAAQIECBAgQKB2gdyI7J/ohmrV8dqDC0iAAAECBAgQIECAQJkCuRHp9Xrh9Ar7iJQ5BWRNgAABAgQIECBAoH6B3IjsiYvV51msXr++iAQIECBAgAABAgQKFdCIFFp4aRMgQIAAAQIECBBoUiA3Ilt3t8PidVNNjkNsAgQIECBAgAABAgQKEsiNyL4DE6F195cLSluqBAgQIECAAAECBAg0KTD6/DNV64nt7bB8gysiTRZCbAIECBAgQIAAAQIlCeQrIjv3dsKCe+2sXlLh5UqAAAECBAgQIECgSYHciOza1wlX3aMRabIQYhMgQIAAAQIECBAoSSA3Io9vmwzXP3iipLzlSoAAAQIECBAgQIBAgwJ2Vm8QX2gCBAgQIECAAAECpQrkRsRi9VLLL28CBAgQIECAAAECzQjkRmRv3Fl9xM7qzVRAVAIECBAgQIAAAQIFCuRGpNfrhdMrjhWYvpQJECBAgAABAgQIEGhCoL+h4aFOaK321KwmCiAmAQIECBAgQIAAgRIFxk6dTGtEJuOGhp6aVeIEkDMBAgQIECBAgACBJgRyI3JgohvCquNNxBeTAAECBAgQIECAAIECBawRKbDoUiZAgAABAgQIECDQtEBuRHbs7YSF91oj0nQxxCdAgAABAgQIECBQikBuRD616Wj46CdPlpKzPAkQIECAAAECBAgQaFggNyKbx9th6X1TDQ9FeAIECBAgQIAAAQIEShGwRqSUSsuTAAECBAgQIECAwAAJaEQGqBiGQoAAAQIECBAgQKAUgdyIHDrSDRfv9PjeUoouTwIECBAgQIAAAQJNC+RG5Imn44aGG21o2HQxxCdAgAABAgQIECBQikDe0HDPgXaYd/dUKTnLkwABAgQIECBAgACBhgVyI9Lt9sKZlccaHorwBAgQIECAAAECBAiUIpBvzXps22S44UG3ZpVSdHkSIECAAAECBAgQaFogNyLj+zth/ho7qzddDPEJECBAgAABAgQIlCKQG5Gn97TD1WunSslZngQIECBAgAABAgQINCyQG5FNO9rh2vUakYZrITwBAgQIECBAgACBYgRyI3LgcDeEu+wjUkzVJUqAAAECBAgQIECgYYH+PiLb4z4iGyxWb7gWwhMgQIAAAQIECBAoRiA3IvsnuqFa5YpIMVWXKAECBAgQIECAAIGGBXIj0u124z4iGpGGayE8AQIECBAgQIAAgWIE8oaG7U4nnL3V43uLqbpECRAgQIAAAQIECDQskBuRrePtsPi+qYaHIjwBAgQIECBAgAABAqUI5Fuzjkx2wyu3uzWrlKLLkwABAgQIECBAgEDTArkRcUWk6TKIT4AAAQIECBAgQKAsgdyIfPqpyXDLIx7fW1bpZUuAAAECBAgQIECgOYHciByMGxpO29CwuSqITIAAAQIECBAgQKAwgdyI9Hq9cHrFscJSly4BAgQIECBAgAABAk0J5EbkqZ3tsOyBqabGIC4BAgQIECBAgAABAoUJ9Ber746P712nESms9tIlQIAAAQIECBAg0JhAbkQm271w7ja3ZjVWBYEJECBAgAABAgQIFCbQf2rWpsPhV5aHamSkqs6/WlU/fbmqzr3aqq4bC9XFUFWLrqqqH/ysVV0d/1yyMFQL5lfVmfN9qYvT8X/xNSH+OTqvql65UFU/P9eqbloaqun47wtGq+p0fO1Vo6H6wUsj1YevCdXC+P6fna2qkVaVX3M+xmq1QhX/bxXCxapqjVTXXN0/zthVoXop/pmOs3RRqH4e3/eTl1vVsvj3eXG8acxpXKe+P1Jdv2Q6jjmOJR7zH3/Sqq4dm86x/vEnIzF+f+zpa2xBf+wpz5/FYy2KMdLXshjz7Cv976U80hjS+374Uvzeonicn7aq5VdfqJaNzcvvTS7p/aPzol3M5fyFVnVNHNf3slWI8ftO09OtPPYXz1R5zCn+mfOt7JLyu35JVb0a0/7Rz/tjORPz/VB0Sq/9aTz+xYj0Sjz24jj+FOflOMbknnJLY5yOf/+HmG+yPXPuYjUaC5Fy/tgN09n5+sX9nP7+x63qxliXZJgyDqFVLYzxUm7p64cvpVh9vw9fG+KfIc+DH59uVTfHY1+IY/xhHGOqba5prPdLZ2Nt5oc8V77305FqLI4x5TLSiuNdELLfd2PcWNrq2qvjfJq+GGPPyzHiS7JhMlqyMM2JaHKuyu9bvjjOh/SCPK5YlziORTHf9L0039JxX47vOx/rlOZGsk6vmx/HdPlYac69GMd+bRxbmtc3LO3nmLK/Lpr8+Of946T3XJ5H//himrdx/sX3pBpdvyTOv1iDNB+uivEvxtzSPEtzM30/ufxzPM7p+N8fuyH9Pc6BmGeaF8sWTcc5M5JtUoyUQ5qDPznTqm6Ix031SGO/Js7Ts6+08hjSfyfnNOdH439fFx3SHEi1SPmfPR/n9IKRWMN4rDin0mvTfEo1SpYp9g9+1v9sLY1zI8VaGOuT8h+Lxqk2r8RxpPmYxnrLtdMxbivm088h5ZM+O2kepmOk+ZBe+8P42U01OR1znhc/q+kzl+qVvm6I8yHN3RRj2aIL1dkLo/2xx7y/H8dyeZ6m2qb3zI+fl2T3q9ened2vYZqDP4ufqRfPjFS/snw6z/2Uc79e8fMU655s/il6Ll88nfO9Jc7RdM55Kc7nlEvyT2NO408O5+J4Un1TjOS/NMY4c+5CzGE0/z15/b8fjcTP1XQebzoDpZjptWme/SjGSMdLXwvjcc7G46XPeMorjTnZpzij81r5nPTT+Pn+6HX9MaWv9HlP57Z0fkif0cXRP32e8ly6dD5Kcz/9PY314sVW9Xf/+y+qjQ8+lMeSapXqnD6LaUzfi+effOw0xvie6fj5TWO5/PX9eN5Jx74ljiGdx9I5+5brpuPx+5/heSPp3+M5Nc6XdL5NMdNxr4rj+8HPR6obYn3TGJNlOtekeB+Ktb0Qz1/ps/RyrNmi+Reqn5+fl89ZyTmdv85Fk3ScNKfT15lz8dwRx5/mbfJL57JzcTxpLqa//yTWOXmn+ZI/G3F8332xP/Zfv/H1fNK/pXmWKpP+TD8r0leqwblX07mkfy56Kc6rdI5L58VXItr5i6M57oI45vSWV+PrUw3S+NNcTq9Lp5bl8ZyRziVp7qafJ+kzl+ba0jgfro5G6TyZznNXL4j5p/fH96UxpBqmz0J/bMmr/29Lo1n6fjoXpTmZjpfm/mh0T3MtfZ0+Ox0/tyPZNn1+z8V6JOtknCxSTZJD+l/6t1fjn+kzmeqe6pJqmOKmMV8fPwcpRjp2yjd9NpNrGts/xeP3zw39c3M63vd/NpKPleZ1/1zcPye9dp6O3h9Z9mo1P06uF2Ot8s/CmM9H4nxKr00x05/p+Gk+pHNg+l+av/ncEOuQ5kF63dJ4/PSz4cPXTOfPdJr/6fyZYqV5keZ2GkMa++XPeTo/f/fFkfyzM82l7/wgnjvjcVMd05xNtv/80nR107KYZPxK57k0B85Ew5uXxQCpetEhvb//9/68SvPl4zf2v9+vaf88l855L8W5mD4f6X2vxMmQjpc+w+kr/YxPP3dviOf7XOfTI3kep3Nj+j0j1Srlko6V/NO8fvXV6Tin5uXPUf5ZFmubzmV53sRxprGl/06+6edSmgfLokP6GosW6Xer9HMtfZZT7dJr0xy6EIeQftan96W6Ju/Lv2slv3QeSp+5dF6K6VQ/jq9LZqle6Wd+PpfEWl2MP8Cujj8/0vHS3Jofz13pM5DOXem8kXJKn5X0+pfPj+T46djpPHzTsvQ7QX8epTzOx89gGlv6uZL+vPyVPifpZ0mKkV6Xzttp7qZ5m36epvNi+rcUI52PkmfKLX395PR0rMO818zSz66fnR2JPzen82tSTVJO6dyRPmfpGOlcns5F6bOd8k+/R6bz6vXRKH1eXo4xkmue7+nnbDz3pfNX8vtJHEsaVzJItU4TPv0cno7n4htjvinemVjHdD5I8S5cuFC9+PL8/Jrkl+qbapt+PqTz0Kvxfen8kezT+S793pN+z0o5/nM0TMdJczsZpbmU5l36bKc4aRzL43ksjTPNpXTMNF/nxe+nz1V6bzqvpLmWXpd+HqXfb9LvFOncls6t3/3+T6v/89d/Ua1evbr62Mc+9npRZvwtzZfLn4+3fcGlf5zr16XDJr/R0ZjY23z9f1N75d7JASU1AAAAAElFTkSuQmCC;movable=0;resizable=0;rotatable=0;deletable=0;editable=0;locked=1;connectable=0;" parent="1" vertex="1">
          <mxGeometry width="802" height="512" as="geometry" />
        </mxCell>
        <mxCell id="pxrJhPeLCdRWbbSAXVPi-14" value="" style="shape=image;verticalLabelPosition=bottom;labelBackgroundColor=default;verticalAlign=top;aspect=fixed;imageAspect=0;image=data:image/png,iVBORw0KGgoAAAANSUhEUgAAAmAAAACACAYAAACssNV7AABBJUlEQVR4XmNkGAAgzc4gZ8jDYKbBzaCrxsWgKcPOIC/OxiAlyMIgzMnMwAlz0v//DP/f/2F4B8Rv731nuAXEt+9+Z7h59SvDxYufGc78ZWD4wzAIACsjA5sBD4OpNjeDvhIngxoIK3IyqID8I8jKIITsxG9/Gb69+83w5tVvhuePfjDcvwP0zzWgf859Zjj58hfDM4ZRMBoCoyEwGgKjITAaAqMhMOxDgC4NMA4mBk5HQQYPF0EGb3tBBjdgA0yW0pAFNmS+nvzEcOToR4b9W98wrH3wg+EOPWNLlZNB01uEIdiKn8HBhJfBCrnhSK47QA2y/e8Zdu59z7Dt4HuGXb/+M/wczYOjITAaAqMhMBoCoyEwGgLDLwRo2gAz52OwjZZgSPUWZgjiYmbgpmXwgUaQ1rxiWLLhNcNy0IgZLewSYWUQDxZliA4WY4jR5WEwpKV/Pv9h+LTlDcOaRS8YZl74wnBqNPONhsBoCIyGwGgIjIbAaAgMnxCgegMMaCBTgChDRJY0Q6kOD4MBvYPq+1+G72teMyye9oShm1qjYmqcDFpZMgxlgaIMkWxMDGz09hOocQnyz9a3DOuAdv8fzYCjITAaAqMhMBoCoyEwGgJDOwSo2gDzAo50lcsztIDWdQ10sPz9z/B35UuGBR0PGWpe/2Z4QY57QGvVKuUZ2oJEGaIYGRkYB9pPV74wXGh/yFC17z3D9tGMNxoCoyEwGgKjITAaAqMhMHRDgCqNChVOBo1OZYbpVgIMDoMtKEBrxXoeMTTMesowgdhF+2yMDOw5MgzlubIMlcD1axyDzU973zFsr7zLkP34J8P90cw3GgKjITAaAqMhMBoCoyEw9EKAogYYEwMDczZwaq5YjqGenYmBfTB7//IXhvM5txhib31juIrPnXo8DMaT1BgWqXMxaA1m/4CmWlsfMFTMfc4wGejO0WnJ0dJnNARGQ2A0BEZDYDQEhlAIkN0AE2NlkJyhwbDCkp/Bbqj49+c/hp919xgKgAvbZ2BxM2OmNENxlQJDOwsjA8tQ8RNwOnJHzk2GGFptPBjNzaMhMBoCoyEwGgKjITAaAtQPAbIaYKBjF+ZqMqwVY2OQGIqRAlwbtrD0DkPa7/8Mv0Du52Ri4JqoxrDQV4QhZCj658kPhkeJ1xkCrnxlOD+aSUZDYDQERkNgNARGQ2A0BAZ/CJDcAAM2UkInqzEsHuxTjoSC/tQnhqOxVxl8gIeosi7XYdhJ62MlaJ0UQGvdUm8whI4u0B8tdkZDYDQERkNgNARGQ2CYNcBiJBjSQIvtmRgZmIZD5N74ynAFdEisAieD8nDwz+9/DL/zbjHEb3jDsHw0842GwGgIjIbAaAiMhsBoCAzeECB6BAzU+OpWYZg5GpmDOwT+/Wf4l3WTIXrjG4YVo3E1GgKjITAaAqMhMBoCoyEwOEOAmRhngaYdJ6oyLBgMZ2GNJiT8IQCKI3chBv8LnxlO0/t6ptG4GQ2B0RAYDYHREBgNgdEQIC4ECI6AgRbcr9Zl2DsYz8MajWTcIfD1L8MXv0sMNqCLvkfDaTQERkNgNARGQ2A0BEZDYHCFAN4GGOioid2GDOeG6m7HkZ7YQJd7u19gMPnwh+HdaMYbDYHREBgNgdEQGA2B0RAYPCGAczE96JDV6RoMy0cbX0M3ucpxMCiCpo6BPmAczXSjITAaAqMhMBoCoyEwGgKDJwRwrgEDnnBfHi3BkDwaWUM7BJS5GNRf/2J4cfELw5nRuBwNgdEQGA2B0RAYDYHREBgcIYB1ZESZk0F9ryHDxaF+1tdoIoOEwJc/DJ8dzjPoPP3J8Gg0TEZDYDQERkNgNARGQ2A0BAY+BLCOgM3SYFilxMmgOhpBwyME2ID3dEqzM8hvesOwajROR0NgNARGQ2A0BEZDYDQEBj4EMNaAeQkzBNkIMDiNRs7wCgFvEYYga/7ReB1N16MhMBoCoyEwGgKjITAYQgBlChLIYTpgxHBFjYtBczR6hl8InPvMcNL7IoPFaNyOhsBoCIyGwGgIjIbAaAgMbAigjID5iTCEjTa+hm+SNOJlMHcUYPAYzXSjITAaAqMhMBoCoyEwGgKDqAGWJcNQOhohwzsEgLtby0bjeDQERkNgNARGQ2A0BEZDYGBDgAVmvTkfg60eD4PRQDjnyheGC4c+MOy58pXh/MMfDPd+/mP4AXKHKCuDOGhHpjk/g429AIMbHwsD/1BIMO9/M7w78IFh56lPDEfvfWe49fY3w2uQu0EXfytyMKjoAsMZ6B9XdW4GbXr7x1qAwVGDi0H3xjeGy6OZbzQERkNgNARGQ2A0BEZDYGBCAL4GbIIqw/xwcYYEejnj9z+G38tfMsyb84xh4u3vDNcJ2cvGyMDuI8IQkivDUKHBzaAzGBMM8Kyts1MeM3TsfMew6fd/hl+E3KjFzaCfJsVQGCLGEMPMyMBMLz/Nfsowse4+Q8FophsNgdEQGA2B0RAYDYHREBiYEAA3wEAjM1fNGV5zMTNw08MZxz4wHCi5w5B2/wfDbVLtA20UiJVgSKtTZOjmZmbgGQwJB3jVz/u6ewwFq18xLAa65z+pblLnYtDpUWGYZcLHYEkP/7wBjsjpn2SQ/MfA8Hc0442GwGgIjIbAaAiMhsBoCNA/BMCL8B0FGTzo1fjqe8TQHHKFwZmcxhcoeICtm3+LXjDMcD3PYHTnG8PNgU40oOlTl/MMBsDG1yKgW/6T456b3xiuBFxisAONTNHDPyKsDKIW/Ax2oxluNARGQ2A0BEZDYDQERkNgYEIA3ABzEWTwpof1FXcYsrofMdSBGlGU2gdqwAEbLbZXvzBcHKjEc/YTw4mgywwO1DhhHjgU9Qc0Ldj2gKGKHv6hV5yPZuzREBgNgdEQGA2B0RAYDQHMEAA3wOwEGFxpHTigka+FLximU9Oet38YXkdeZfB4/pPhKb0j9/53hjsx1xi8P/9l+EhNuyc/YWif+4xhMq39Yy9I+zgfzXCjITAaAqMhMBoCoyEwGgLYQ4BRio1B9qwZbe8IPPKBYV/YFQZXaox8YfOGGR+DzQZdhkOMjAyM9Iho0AYCz4sMZle/MlyghX0sjAysm/QYjhryMpjSyj///zP8Vz/BIEjtBuRoRhsNgdEQGA2B0RAYDYHRECAcAkzASt6MlgEFaqyU3WHIoFXjC+R24HEPRxa/YJhFrwif+Yyhj1aNL5Af/vxn+A0Ms3RQI4lWfgI1VvV5GExGM8loCIyGwGgIjIbAaAiMhgD9Q4BJk5tBj5bWgo6aIHfBPSnu6n3E0PgDen4YLf3z6Q/Dx8nAoyZoHVWgM9FofXm2Fo3jfjRDj4bAaAiMhsBoCIyGwGgIYA8BJhVOBnVaBs7sZwwT6BH4r34zPN/0mmEVre0C7Xb89JfhAz38NPMpQz8t7VHhYtAYzRijITAaAqMhMBoCoyEwGgL0DwEmOQ4GRVpZCzqi4c53hhv08tb61wzLaG3XOjrYAfPD+S8MJx//YHhAKz/JsjMojGa60RAYDYHREBgNgdEQGA0B+ocAizgbgxStrD34gWEXPb108hPD4V//GH6xMTGw0cLez38YPl34zHCann7a/55hZ5wkQzot7JSgYdyPZmbqhAALEMgDgSoQKAGBGBBwAQEbEIBs+AQE34DgCRDcAYJbQPAOCEbDf3CFgAAQgOJQGQhA8QmKQ34gALnyNxB8BYI3QHAfCEDxeA8IQOJDPR4FWRiEFYDXr4E6+rIcDArsTAwc/MwMAjB/AZeNfAdd1fbiF8Ozu98ZboLw938M30bT72gIjIQQYAFlEFp5FDQCRs9ABGVc0IgbrdY2ARfeX6T36fHXvtLunDNBVgZhWsWPIhD0AwEh80GNhSQgGAyZbR4QCAEBIbcUAgGooqSVm9WBIBAIHIDABgi4gYAUu24CwQEg2AsEW4DgOxDQyq3JQOALBNjMfwQE+UDwHwgGIn4joACb3XOBYDMQ0Mpd7EDgAQSuQACKR20gIMUuUJwdAwJQPG4EgstAwDAEgDArg5i7EIOfFT+DgzEvg4UCJ4MyKc7++5/h7+UvDOePfWTYv/0tw4aznxlO0HIDF6lBWinP0KbGxaBFTlTMAi7HOf6R4QCtotGan8EpRYohjxLzae1GmNs4mRi4JqsxLKbkCj7gfcZXOh8y1ODzryEPg3meLEPlYM06LJzMDJy0ctyDHwx36e3xJz8YHtKqAfbkJ8NDevsHuIHhDq3sBGUCWpkN6t37AwEx5i8CAlBFM5CZBFRJJgIBMW5oAAJqu5UTCED2JwCBKRBQYr46FKQDAWiEbA0QTAGC80BAbXfrAgG+eAY1wnqAYCDiVgMIcLmNVulNCwhygSAcCASBgFx/g9KDMxQ0A8FFIFgIBLOB4AsQMAwiwM7IwBEgyhAJukvYHHgkEBMjAxO5zgNVyAa8DCYgnCXDUApagrHiJcP8Bc8Zpr37w/BmIL0Nmi3KkWEoJ9d/wIbkf1o2wKTZGeQ8hBn8KQkjUPjT0o0wt/mKMIR5izAEUeJWPhbESCouc4BxJklpmNAyzTHR0vCvfxk+0zvDgO5lpJWdQLPf0ds/wDD8Qis7geeNsTAMApAJBAPtjCwgGAg3cABBMRCAppymAgGljS90P/ABAWiE8RwQbAMCMyCgpz/bgYDedg5EPOoBAaihewUIMoCAksYXNvfrA0EfEDwAglog4AWCgc4z/CwMgqARoXNmDE8mqDHMswReb0ZJ4wubf0DTlqXyDI3AsyofNygy9NFyxoZQeIaJMcRT4j9XIQYf4DVw4gyDGDgLMniBzgaltRNB9zkzjAIGmjbAgFOC3+kdxqBeBq3spOW5XLjcDFojQSv/0Ov+T0LuDwICCSAYqPwoCQSgKT962+8GBKAKGzRCRA//ewLBCSCYCQTUbiDgCjvQGrblQABb7zTcylxQQwjUMAI1cIOBgBEIaOlHYSBoAoJrQDAQaRbkNzZGBvZMaYaSkyYM90DTO0I0XMoAC0sO4NqxdGmGwuMmDHcixBmSgOKMdE5LjFHiDMmU2Anq8IaKMcQO5jwAamBGSTCk0NKNGlwMuiZ8DJYMo4C2DbDR8B0NAWJCAFRJpwLBQIUWyG6QG+hlP2jUaxYQ7AQC0KJsevob1EBIA4LrQOAIBPSwG7R5AOTf4ZYbQCN7oAY0aE0gMxDQ038yQLAOCFYCAQ8Q0MtubW4Ggx0GDKfrFBm6+YmYAqK2u0B29qsyzF2oybBRgIVBiF7+tuRjsCN1PRs2twEbcSmDPR/ESDCkMjMw0Gx2ZHT0C5ECWBhGwWgIDIIQADUK2oDgLxDQ0zmghhfIbnrZqQAEoIrTEAhItRO00xE0BfUWCEDrgEANOdACfdAIHmiHHWhnHbFmigPBHiCoAoJOIKC1/8OAALQpYLg0xEDTjBOBALYbldjw+wEEoF2OT4EAtPMRtIMVNIoGGpEEpQ05ICAlLkDhCpr+BI0igxrVtIzHDGmG4moFho7BsHTBTZjBdyc3w5noqwxe9DjqiFqjQsCzF9VNeRmsT39mODpYKx7QuinQdOmOdwwbqO1G0LrjkEE+CkjPeBltgDGMgsEQAqAePWg33QYgoKd7QHZKAwE97AQtWN8FBMRONz4DghVAAGooHQGCz0CAy52gkS01IACt2wb5CTS9yQQE+PwFku8AAhUgADVCab1bEdRgAe3sA40aDeVcB+ooVAIBMX4AhSmo4bkJCPYBAaiR9A8IcOkFNaitgAC0exK0kJ+YBhlos8FRIABNMZ8EAmqHLSsjA1unMsP0SAnw1N+giTrQ0RYb9BgOAxthnhe/MJyhlcN4mRn4vYUZgqllfiRwCnUwN8BA/gSOgqXRogEGWnwPXDzPzzAKwCHANBoOoyEwWEJgIBbjZwMBPfwP2h0HqoCJaXyBKlE/IABVvqAF+tuBAF/jC+R+UEUPOn5iGhCAKmLQaApoZAs04kLIfylAANJH63AAjdiBpsxIGakbbLmT2MYXKNxBx7CAjmMBNaYmA8FVIMDX+AL5FTQqthsIyoAApBe2bo9QOIBG0ECNe2pv4gCNWCzTZtg+2BpfsPAAHnshslKHYTdoXRGt0kogcIcnNU8L8BNlCONiYuAZzDWPkyCDhww7gzy13Tg6/YgaoqMNMIZRMFhCAFRRgUZj6OUe0GkNoBEjWtsnCgRbgUAECPDZBZpiDAACCyAAnVFFyXTsYyCoAALQ+qtlQEDIj6ApNdB0JK3DAtQQnQQEQzHXgcKImJEv0KYDULgXAcFDICDXr6DG2g4gsAQCULoATVviMwu04xWUbkidxsRlJmjka4EWw0YbAQanwRxfoHVhy7UZdtDqUHFqL0rnZmbgATXCBnOYMjIyMFJ7vZomF4Pe6OJ71FgfbYAxjILBEgKgaTRQJUcv99BjxI0VCEBrvkAjUvj8BZpqBB3WCTp0k5r+fw4E0UAA2qFHaBStFQjosbMOdHgr6IzUoZTzQBsWQGep4XPzRyAArcWKAgJQuFPTf6B0AWq8gkYQ8ZkLWtsHaoRRY5SxW4Vhlp0Ag8tQiCcJdgap+ZoMG4Dr01ip6V5Qo0Gfh8GY2mEQKT64pnOx+Q/Y8Eym5mJ84I0uGaO1LWoIjK4BG00RdA+Bl0AAqiiwWQw6s6oGCIiZOqPE4aAKCnToKS4zXgEB6NofSgOnGghAp9njMwc0UtUFBLRcgwVqBILWH4FOxgeNzuByzxwgAE2Bgtaf0TJhgBbjnwaCu0Aw2LMg6BqhJUCAb6cjyB8+QHADCGjlH9ChupFAADqCohEIcNkDWpQPmn4GHQhLrlviJBgygAerxlPqly9/GD7ve8+w/SjwZPsrXxkuPPzBcO/db4Y3oNPtgUdLcIJ2MgIbObqGvAxmwIM5gyk5RBtohmmpHENj+0OGKmrFQTSNjmQw42OwVuZkUAddvTRY0z81F+MDp7K5Q0QZYgZ7Xgdei/XmxU+Gp/Ry52gDjGEU0DsEQJXUbSDA1jABrWUBjY4sAAJaugs0SoHrbCrQguY/QEBpA8wECECNSXz+AB1hMAEI6BEHoAaYPRAcBAJcjTDQVUyg09a9gYBSN/0CAly7BEE7/0CjOaAF5yB1gzkXgka+pIAAlxtBjS/QTQqgKWRa+wPUSAedAwYKM9Aht7jsywGC9UAAWndIqptA66lalBgmUeKXW98Yrk9+zNC+9S3DWlx3O4LOOATeAfkUhPd/YNjR95ihSZebwahMnqHZRYjBixz7QSfV73zHsOkc8AojSuMCdN5ZkChDNK3iFDQK1vKAoXwwp31qLcYH3pQQwcPCwMswyMG6VwxL6+4zFNDLmaNTkAyjYCBCYDoQ4LKXHlOD+E6+x+c2YsMKNJ0KWniNb9SkGwjo1fiCuRvUSPACAtB0GS6/gORBmwAoTRegA0pBI4m4zDEGAtAuzMGcA22BADSFi8uNoHAELZSnR+ML2Q2gcAOFL76wA92sQOr5dsDTTZl6gFOPrEwMZE3lffrD8LH8DkOmwzkGnTWvGRaTerH25a8M52KvMXjHXGXwfv2L4SUpaePVL4YXFXcZsi5+ps6OSOAVNgHA+3KJPmvsxleGK6S4F3SyPrWnTKmdl6CL8RUoNRe4+D6dYRRghMBoA2w0UQxICICubXkNBNgsBx1waQQEtHIYaJE7rnO4QG5aDQSU2g1acwWyB5c5oJEJYo8yoHY4gHZL4pt+BdkHmhKl9HBa0FRzLBDgcz9oBBA0dTcYsyGoEU3oHkuQ/0CjuQPhftBOSdBoJi67QcdTgNbbkeI24NRjujEfgwU5/jn/meGU03kGvUUvGGZQeoH23vcM2xzPMeie+kT4vCzQNGfXQ4Y6izMMKotfMMz8y8DwhxrxQer049QnDF3EuBfmNlE2BnHQ1T8MgxiAFuNTunMRdHgvaHqYYRRghMBoA2w0UQxICICmUOYCAS7LaXk3I74RNpCbKJ0SA1XcLUCAy2+gwzdBFSO9D51Fdg/ovLXFQIDLjaAdoqD1RpQmDtDRCKCRPnzmgKabQefADbasCJqGxXePJegSedCC94FyNyj9gC5wB6UnXG6oAwLQRhBi3Ahak1Ukx1BHjn92vWXY7H+JwfbpT4ZH1AqPt38YXodeZnDe8ZZhIzYzf/9j+D3vGcMUYMNLuf8xQzNwtO0rtewGHcFgy8/gTKx53/4yfN32lmH9mlcMi0lxA6XXG9Ej7YGmSikZqQNNYzKMAqwhMNoAG00YAxYCoDsJcS08B1X+oMXP1HYc6CgI0AGX2MwFuQXkJkrtdAcCUAMGlzmg3YagE+0HOumBRp/wTUWC5KnhRtBGhFNAgMss0P2GS4GA3tf5EPJbARDgUgMKN9AxEwMdh/eBAJSecLkDtHYtFAiIcSeoohRjY5Ag1U/73zPsTLnBEPL7P8MvaofHr/8MP9NuMIQd+sCwB9nsja8ZVtqeY9CsvseQC2qoUdte0H2ToNEfYs3d/pZhw7d/DF82vWFY9esf8eHgDFzrJspKepjTM92BRurchRj8yLFzqCy+H6h8PNoAYxgFAxUCoEbINiDAZj9ol2I8EFDbbaBdluxAgM1c0Fld1GgY5QEBLneDrhEaLOdggdyCbw0aaJqW0A5OYuLnNxCANj2AdvHhUm8HBKDRmsGSG0FHguA7Iw4UbqDwGwzuBaWnF0CAyy3E7IYErf1KkyJ98TFwF9+t9BsM4bRofMH8AzIbZAdwdO3x0Q8M+z0uMJhm3GSIAO6ovEuL8AeFRbgYQwIpZsNGvj7+YXi/+x3DFmL1MjMyMIeJM8QzDHJA7hquobL4fqCCf7QBxjAKBjIECC3GB03nUct9oKt38J0zRo3T4EGHroJGwHC5GVRZgu5xHCypDnQ90HcgwOWeGCCghltBOwXTgQCfWaAdo6BdmoMhbPBNv/4EgsF0mCwoPYE2fOAKN9BaREKXvlvxMzjIcjCQtNj673+Gvzk3GWI//2X4SOs4+/CH4Z3LeQaDkCsMTrS8dgjkD9DZZzIcDHLE+gm0+B95hG7ta4YlpITHQJ0J9uA7A9ENWFCYAK9+UiI1nklpuD37yfBkpNXGow0whlEwkCEAumYH12nhoGk80AGY1HKfBxCArnfBZh5oKmcnEFBqF2j3IK47GEEnm+Nb9zYQ8fAeCFYBAS67QSewE7pTklh3gw6bnQcEuNSD7AGd2k/oxgB6hFMIEOCyB7RJ4x0QDKaSAxSuoKNTcLkJn39AekA78kj1D3Cx/cwLXxhO0SscQI0wethF6rqsda8Zlv1jYPgLc9vedwzbgG59T6xbgeeBqQHPBbOhd3ra8pZhDbHuBE3HRoszpJDiRh1uBkNSFt8ve8kwl2GEgdEGGMMoGMgQADVK8K27ouZifEJHTxC6p4+YcAI1WHCp2w8EhK6TGYi4WAgEuOwFHZhrDgTUchdoehbfYaWgNUsg91Bz5JNUt6tDAS59oPVqg63UAE1B4utAgC5ox+Vm0JSbmzCDLyl+Ap7h9aP3IUPDcCs9hVgYREDHT5DiL/SF96B1a6A1aqSYMRCjYKA4XP2SYRGx7iR1MX68JEMmsWaDji/Z/JphFcMIA8PuINa5zxgmAXfNbKBFPD74wXCX3unj0Q+G+4nXGAKHc7oEjQqBTvbGtlvLHwhAlTKlJ7ODrgICnW+FLRxBU0rzgYDSMAY1GkAHi+IyB7TGbDDG42Eg+AAEuDY9gM7COg4E1HA76LJp0EG7oNP2ca3FA8UTaIF7LxAMRHjhW/cGmq49AASDMR43AQGuA3RBl3SDwhuU1tHdDjp9HngivSApfgI1Omix+H2gwzVIjCGajYmBjVh33PzGcO0q8IR/dPVrXzEsATZAiL56x0+EIazmHkP+178Mn+kZBqAjQ1KlGfKJsRO2GB90uC4h9cD7LnlBl5gT65fVrxgWATcxfGMYYWDYNcBAB/mB8HCJR9D6ih3vGDYM53QJOqwTdC4YtnU3oLOoUoEA39UrxIQNaO0XrlEV0BTcGyCgNIzVgAB0kjwuc3YDwWCMR9DU1V4gAJ1dhs19+M4zI8c/F4GgGAjw3a0IOuX9EBCAriuid5iBLr/GZSfITbS+Jotc/4KO/MClF3QjAehsPWwNadD6L1LtXP6SYd5wLJNInX4ENRywhcPpzwzHQJ1n4LopRWLCiYuZgdtfhCEcOA03h57heuc7w41jHxkOAtOAPTH2gtZ0EdMAAzW+QJeOE+uXRc8ZZjCMQDB6FRHDKBgMIQBajI9r4TOoAQbaao9vjQs+P4B6/vgOpKTG4nuQ/fgOjwWd1QS6CmiwpjbQiBSuBhgtDsUFhbkrEIBGOLGFCWg0FLRmDGQ3vqMyaBGe+Px7FggGaxyCdvCCDhIGbQTB5kZcDTDgQZn6pPgJtFgaeNXPyeFWchrwMJhqcjPoEuuv//8Z/oOursGh/j+wcba4mIRz1UCNP3o3wEBuX/KCYRaxDTB7QQZXBQ4GFeBs0B184UTK4vuTHxmO3PrOcA149prCQKcp0CHEwDijy9Q68PiWHaMNsNH216AIAdA02BUg0AECdAdJAwFocTvoQmlyHAs6BwnXwu4LQHACCKgRCLgW+IPMvgwEA3nwKiH/nQMCXGpAh6SCGkSg4ySolVhAZ66BjgS5BASg+MVmLui+StD6QNCUJT0TKb54xBdOgyEjgdyHaxcuLn+BKlRS3H4cOGICVP9/uBWdwDVOyaT4CXTB+PNfuHfugaYhSWmAgSp/VU4GzdvfGa7TM2y3vmFY+w5496cQK4MwMfaCTsZvfsBQhkutHg+DMRAbEesHUANwsKQlI14GcxCmh3uA694+jC7CZxgFgyUE8B1JQclifHx6QfflUcv/uC64BpkP2mU5mFMaPveBDkiVBQJqux+0kxA06olv8wPo0FzQCCi9wk4ACnDZNxgO0MUXFvjiEVf6VOJkUCUlfIfj6BfwwFAu4MXbUaSEA3AdHN7jJu7/YLgNup6JFDNJbQRSI1+ANg2sesWwkFizgOeWJbAy4l4nR8roF2gX5uY3DKsZRigYHQFjGAWDJQRAV+N0AgEPEKC7CXQoJmiN1S0gIMW9BkCAa00PaGprORBQy/9iQIDLrEdAMJhTGqHLpCWB4B4QUNsPoJHPJiBoAAJcZoPO3DoGBFeBgNZhKAEE+Ox4DASDOR5xHekCcjNoRys2t4MWV5PiJ0LTT7jMAq4LiupQZphGj/AD3UlJyrVIPiIMITwsDLzEug20g5CYtVDAhs0i4FEMZsSaGyrGENv2kKHyz3+G3/RMZ6A1WBnSDEXE2CnCyiAK2ikKbDhh7FokefE9cBfmz/8MPxhGKBgdAWMYBYMlBD4DwRIgwOUefHc44tKDb/QLdNwBaFcetfzPBwS4zKL3OiZS/QS6/xKfGzmAgFbpBHRvJqghhst8kN2gjRKcQEDrtErIn4Pl9Htc4QDazYpLjhsI0OW4mBh4SA3T5z8ZnpITD6BREz4WBn56YNDRGqS4kdSRJ9BO+y9/GT4RsmMT8MokYGOK6MvBRdgYxFyFGHwY6AxAo3VHPjDsI9Za0KXt2NSSuvh+4QuG6QwjGIw2wBhGwWAKAXzTkKCriUBXFBHrXn4giAYCXOrx2UVOmOBzG74LkwdL+ONb48ULBLRyJ2htHOiqInyHm2oBAT1On8d3/yho3dpgXscHih98OzSxxSEnMwMXqfH6mYiGx1AqVRU5GFQt+RnsSHEzsZduv/vD8Aa02JoUswfqZHzQwbrEutNGgMEJ29pBUqYfQbsvgVdZ3RzJNfBoA2y0/TWoQgC0KPsoEGBzlCAQ4LpIG5t6fA020KGo+A4EJSdQsJ1jNpSSF2gUbKDcC5oCBS3Kx2d/ChDQe0E+snuouQmBVuGM63J7kH3YLjsHjkqxMoxwQGqD581vhtcHPzDsJjbYQLshSQliJ0EGTzFWBkl6RwtoVA/kN2LtBS3GR1YL2kU6VBffD1QWGHZrwKTZGeSAhwoKMYwCokIA2yGCAx10oJEpayDA5g7QlCIxh6aCzvzCN2VJzcX3MHfim8IbCo0zbFNUML/R4+yrjUAAOhssBwhwpUHQrkjQ2WCguyVpkU7xjVSCztIa7MUKtkYWzM3YLkP/9pfhK6l+4mBi4BguxSszAwNLuDhpF29veM2wnJQ1WrveMmz6/IfhEy8LAx8x4Qa6oBvkpslPGNrpGc6gS89XvWRYkCXDUEqMvaDF+B0PGWpgF7EDpyWJPnj23W+Gt6DdlwwjHAy7BlipHENT+BC4XX6wpDvJIwyMgy0PgA5l7QcCbOcZmQAB6FRvQgd0gu6Q1AACbH57DgSgyp7a/sZ3qTVoOnQwlzWgButAN8BA4VMKBKCT9/WBAFt4gdbZgc4HAzXQaTFiR6ihCYrHwbyeDzRKjCudYfPbJzIu0gYeVyDC8H141JxOQsDRJjYGCVJ8AzpeghT1oEXmoJ1+URIMRB9zARqVAzbAOoD20PW4D9A0ZKY0Qwno7kdCfkRejM/DzMDnL8oQQWy4gHZdgnZfMoxwMDoFyTAKBlsIELoaiJgjKfCpmQUE5B7qii+sQBdb45IH7SIczCkNtEMOdOsALjeCDvikh/tBjQTQNCO+kShQI7wNCGjhHkL+BF2LNZjjEV86w7HG7j9wFIykK2Bk2RkUhkupSeoF07e/MdwAXkB+mlT/r3nNsIQUPYqcDCoWfAy29A7nh8Dr9g59YNhDrL0JkgxZILUhogwxXCSsJ1z4fGQvvoeF72gDjGEUDMYQAE014VrPAloHhu/KH1AlietSbNAialADjBZ+xndGlDwQDOaUBrorE5/78B1vQG1/gdbm5QIBPnNBVxnhutuTEveALrXGN7I2lOMRV/ok9VgJ0N2Rw6HUFGVlkHAWYvAixS+kjn7BzD7xkeHQkx8Mj0ixayDOBAO5b/ELhpnEuhN0gr4yJ4N6jARDGrF6QLstyT3KhNbp7tc/hl+gi8HpgYF2/Rw9B4xhFAzGEACdObUDCDyBAN19oOMIQAvsQdOU2NyeBgS41sJsAAJKL/bGFV74zsnCdsL/YAp3XSDA5R7QPZlfgICe7p0HBKCrivAtul8EBHpAQM34BDX6QQ0V0Jlz2PwLCidQuhyspQYoPEhNn/e/M9whpVFlysdgzTAMAPDMrTgWRgaS6sC1rxmWkuN14Dziv/WvGZblyjJUEKsfdDZZ9T2G3C903nW68x3Dpte/GF4Sez5clzLDDG0eBqKvsyJltyW9kxloZK7uPkMBvewdHQFjGAWDNQTwHRMBWmCP7XJt0DQaqAGGy0/UuvcRm/nXgACXvaApPlxX7gyG8DcDAlzuoMcBqNjsTgcCfI1aYSBYBgT4Fp6TE7agK7Fw6TMGgsGaX0Dr01SBAJf7cKVP0IXMpPjJmJfBQpiVQWyol5ykrMkC+fU4aBTrJ8MDcv1N7NEVMPNBU3qgC7rpHc6gDQakXLZuJcDgQKwbQbssQbstGUYBOARGR8BGE8KgDYGtQAA6QV4OCNAdCapoQKfj7wECZDnQ1COudTA3gQB0/AStPAy6hw90VAGuHY+gjQH4DpodyIgAuQ2X/ceBYCDcBtq1BxoBA52Cj2t9mj0Q1ABBIxBQy42gi8mDgACbeXZAAGr44zvuYaDiEV8cgtyE685T0J2G+bIMVcS6m4mRgclXmCFkwQvSTrUH7bjuecTQSE74hIsxJMhyMMhTK2zNgeurgFNnaqSYR+70I8wO0IXTl74wnCPlqAZQI3HpS4bZ9E5TwPsZZ+fKMFQQsxifFLetfMkwH7ZrkmEUMIw2wEYTwaANAdAdgaC1YK1AgM2RoIX26A0wfIvvQSNqtKw4QQvIQY0wcyDA5l7QmqXB2AADHXKqDAS4EsJANcBA7gHtdq0Cgi4gwOW+OiA4AAQHgYAaiRnU4MNlDqhxbwgEg/FSbn8gwOXu20AAmkrGJn/mE8Ox3/8YfrMyMRB9JliCFEP2Asgp5kTv0gM1wMg99ga41siBmg0wcg47bVRi6KtTZOimJI2B7pwkRT/oYmg1LgbtW98YrtKzoH78k+H+vvcMO4Br5DypZe///wz/B/P0I8MAgNEpSIZRMJhDYA4Q4DoA0w8IZIAA5n5NIMA1CgDaVQe6eojWft0OBLjs8AECfEc9DFQ84FtnBVqQDmrcDGQa6QGCXUCAyw1MQLAUCESAgBruBI2A4dvRGgoEgy3PgK5QwtcA2wkEuNz8/R/Dt1OfGI6Q4id1LgYtb2GGIIYhCED3FfqKMISR6nSgPh5Kr1EipZELc99AnYwPHAWbRc3oBe2ufPSD4R7DKICHwGgDbDQxDOoQeAUEa4EAmyNBa39SgQAmh+/gVdBaIXz35FErENYBAS6zQFfBDLbKGzS1BzphHpebQQ0fbAd40jPRgEYtY4HgJRDgshe0vm4BEGBbF0iqW0EN/s1AgEtfIhAMtoN1QekK3xlgoLs08YUDqcckgMyqUWDoZGcceoeyBogwRHCRcQXTQBWUoM0CoHs06W3/7ncMW17+YnhOLXtJ2V3JMELAaAOMYRQM9hDAtxgf1AADVYagkSXQzkhcfqHl4ntkOy8DwXUgwOWOfCCgRiOBWnEGOtID39lRK4FgMKQPUEM8DgjwTSF7A0EhEFDDvfgaLKANFfjuGKV3eIHSUxEQ4LIXtEsU1/VeMD2gg0JJPQ9MgZNBuVKBoW2olaCkLr4faP8BNzyIuAkx+NLbHX8ZGP4se8Ewlxr2gnZVgnZXMowClBAYbYCNJohBHwKHgADXTjxQ4wE09QKqEEGnpGPzDGjx8XkgoJdH8TUYDYAgBAgGQ6CDRr/wLV4HrRkC3UowWBIIaDSuGwjwuacDCEAHtVLqZtBUMr5z3UAL//EdXEvPMAsEAlC6wmUnaB0laD0lPjd9/cvwmdRdeiDz0qUZCoE79SIYhggATp3qgNZVMQwxECHOkDQQTl72kmEOaO0WpXaDdlWScn0TwwgBow0whlEwFEIAX6MmCwpw+QOfXlr4HXRXJb5pO9CCci4gGOhwLwACfIvvZwABPe6AJCUcQA0f0BotXHpAo6GgUTtcjXFi7QI1WCYBAS71oHADjWYOdByC0lEvEOByB2gNHygeiXHnpCcMbaDF+KT6aaIawwLQBdJDoRwZqPVUlIYNMHw9JNgYpOkdxk9+Mjzc855hKyX2ghpwo9OP2ENwtAHGMAqGQggsBgJch4GCFt7jujvwLRAQWv9Cbf+D3Imv8gadOt8CBAMZ7qCDRpuAAJcbQH4AXYw92NIGaH1WFBDga+AqAQE1bjuYDQT4riZqBgJ8DVh6hB3oSiZ8txiANrGApm+JccvTnwyPgEcezCHV3exMDOwLNBk2hokxxNPCz6a8DNbUOH0ftI4qRIwhdiiW+KCjP0BHcQyE24GNJ4oW44N2U4IacgyjACMERhtgo4liSIQAqMIF7XQj1bGgE9UHYhQHNMqFr+IDrVUCTR0NROCD1suBNjaAbhTAZT/I/fgWvQ9kogEdzorvsF2Q20Br2/Dt7iTG/aBGKL4pWlD4rQeCgRrNDAYCfKNwhNyPLQy6HjLUvv3N8IbU+AXt7gONhE1QZZgvwMIgRI30wcHEwFksx9CwTo/hANBMQUrNdBdi8AOtp2IYogA4DZkIdDojvZ2/9x3Dtmc/GZ6Qay+1d1MyDCMw2gBjGAVDJQRInUoELdgmdvqF2mHwGQhqgQCfuaBjMXCdGUarOGEDghVAgO9qpMdAgG9aazCkF9A041wgwOcWdSCg1K2g9VP4bjgAXU1Ei9P4CbkblG5Auz7xqQOdn0fs6BfMnPd/GN423mcoJjfcwsUZEg4bM9xIlWIoADWgyDEHpC9egiHzqDHDrRI5hnpSrwvCZWekBEPyUC7tQZseLPkY7Ojth38MDH+Ba8HIWowP2kUJ2k3JMAqwhsDoQayjCWPIhMBFIAAdCmoJBMQ4GnRnH76rbGjtcdAUFmiUwg0IsNkFOpYCtLAcNIVKj4M9QY0v0FQu6DwyfH4H7SYFnZs22BMGaPTHGgg0gIBWbv0DBKDwAKU7XIvuQZtAQPdSgo6nwHeRN7XcaAEEoHO9eIAAl5mgdXKg89PIsXP1K4ZFrkIMPsCzskLJ0S/CyiDapMTQXyDLULPhNcPyLW8Z1oIPe/3P8AuXeaDjLIz5GCxB9x+Crt8RYmUQpmacSrExyDoKMLgzDHEAakQe/8RwkN7eWA7cDVkky1ALmgolxW7QLkrQbsqhEuyW/Az2TYoME+jl3tEGGMMoGEohABoFI7YBRu/F9+jhCBqBSwIC0NEUuM5oAi0WPwIECUBAy7VqYkAAmna0AQJ88T0BCGh5XRM109pXIABNNZ4CAnYgoFU6PgMETVCAyw7QujRZIAA1uPGtG6PUjaBpVdC0Or7pY1DjGdRoBDUeybWv4BZDEugEdtCBq+SaAWpEJUkx5IDw978M30F3TgIv/r798S/Dhx9APifwLC5+FgZBRQ4GFVUuBk3QWjJqxOG73wxvP/9l+IhsFmhkjtRrdUDmzHvOMIVW6UqWnUEe5C5SzPcBXgFVzcyQi+4/Wpfhz34xPN71jmGzhzCDP7F2/fvP8G+oTT/q8DAYgDADncBoA4xhFAylEAA1UvqBAHQRMz53PwQC0F2SA+23p0AAulcQNNKF6/BOUGUKmlLzBALQ2jBqHxgLWmsGaoyCzq/CFx57gaAMCIZSergEBMVAQOsNA6BNE6AriPCt27MFAlBjG7QpF9+BvOSErwAQgBrH+M66A5kL2r0JagyC7j2lJB6//WP4En+NwW+rPsMJaqybAja2OHV5GAxBmJbp6/Mfhk8xVxm8P/5heA+zB7hoigm6fookq0F3P/Y+YmiglXtBo35ewNsEeFkY+Ii1AxSOgaIMkcArfWbQO5+CGlOkNMD2vgeuHQM23BhGAc4QGF0DNpo4hlQI/AQC0AgAIUcTc/YRvTwOusonHQgI2QcaBbsDBKAGBb4RDmLdDVonBJqqAjUGCDW+QBU26DR1XNc+DeZEMhUINgIBLd0IGs2MAYKzQIDPHlA4g0YaQeEOmiqk1E2gdAA6LgR0lyOhxhfIrlIgoFZYPPzBcDfkMoMTOYvyByK9fAA2usKvMLid/8JwEtl+a34GRzkOBkVS3QSaiqWlP37+Z/ix6Q3DKlLtAB6lMSBr2cC7GX8wPCLWvZTunmQYAWC0AcYwCoZaCIAW1uM7ER20DofQAm16+xl0Nhi+i8Jh7gGN7IHW7oBGziYDgRUQgK5cIta9oKlG0NVCoAulQQfQ4lp/hmweqHJ3AQJ89x8O9jQCmup9AgS0dCdoag80SnkBCAjZAwp30Lox0FosUOMb320D6GaB4tsMCEAjXqANEaARX2LuuQSdkdYHBNQMgxvfGC4HXmKwA97hd38wp4HHPxge+l1ksEZvfIHcTM7J99e/Mly+/JXhHK39DBplI9UOA14GEw0uBl16xwfw1vV/oINZibEXtGsStHuSYRTgDYHRKcjRBDLkQgC0sB40wuABBNgcDzq9ndTdX/QIBNA0IOg4DVDjkNCaJdCasRwoAOkBVeY3gAA0QgbaYfkRCECL6kFHSoAuJFcFAtAUGb7djdj8CDIXtIicluuW6BG274AANPUGGm0EXc5NKztB4eQABKCpcGIat2ZQAOo0gOIPNIIGavCCGlagBh3oiBTQOkDQgnoVIADt3AStccR3ryO630BrvUCjZKCRQFr4+/Z3huueFxjM5moyrLPgZ7AdbAXGwfcMuzNvMkSCdnCiuw20xsyLjEvDV71iWEgPf574xHD4CXBUSYaDQY4U+0AHytbfZyikd1yAdkMCjwapZ2ZkYMZnN0gdaPckwyjAGwKjDbDRBDIkQwDUmMHVABvoxff4AhR0lhnorkjQNBW+AzSRzQBV0O5QQM3IAo2wlQABPXbu0SORHQaCRiigpX2gxq8XEDQAAWjUiVi7NKCAmm57DgSgjQggv9PSz+/+MLwBTUcWyDHUAHc3VlPraAhK3PzzH8NP4LllddOfMvSARmewmRUkyhBN6uL+v/8Z/gJHppbSI82C3L3uNcPSPFmGSlLsAx0o2/KAofw3np2ltHA/8FiJZzvfMmzyEmEIxGU+KPxGz/4iLvRHpyAZRsFQDAHQAvtHQIDudtCibNCuwsHsJ9CRE6DRKtAxFfimUmnlB9Doix8Q5AHBcGl8wcIKdPYV6O5QWsf/XyAAnfMGmroFjWgNRHoDnT8GugOS1o0vmN9AxwmAFqX7XGSwvPCZ4cxA5rHDHxj2upxnMJj2lKELV+ML5L4ocdLP/tr/nmHn698ML+jlP3Lu4ATtMAUdLDsQcUBoAwDo3C9QQ220ZiUcAsNuBKzgNkMCCA+XyNfmZjDYY8hwfjQxo4YAqAIEXTeDfqXPYB79QvYBaKcj6DR30GGaoHU79DiQFXRsA2jUCxRmIPZwTFOgdAG6mB20TovQTllq+B+0c1QPCEqggB8IaB2uIL+BFtvvAYKBiMOLXxjOeF5kMAOd11Uhz9ACOiCUXu4Arc0CjfwAF4RvJ2SnLjeDETlHCtBr+hHmftAUL6hBC1rbRUo4gs4EA56xtobeaeDQB4Y9oDWBuDY2jI5+ER8joyNgoy2bIRsCoHvukHftgdZGLQGCoeQh0GJ50G450HoiUGVOC7eD7sPsBALQlGclEAzXxhcs7ECL8UGL8umVDkDruECNWlD41gEBra5wAo3sgtbrGQHBQDW+kML0/8Y3DCuszjKoJV1nCDr2geEALcP79CeGY6nXGUKdgaNexDS+QG4h5+R74PEVH4BTbBvpXYasfc2whFQ7QQfLgg6YpbdbQSOOS18wYL0zFLSeDbRbkmEUEBUCNB0B4wTe5TUaD5SFAAcNw/DbX4avtIof0EgEaK0MNvNxXapNqltAFd1yIABVSiC9oOMpqGU2yBxc7gf5jdrhthsKQJU4aAQHdN4UaJqS3AXloEbXPiAArTnbBgS0Ol7iOxDgCifQkSEDlf83AQFo9yCuhhgt3AYa1QRd0A26IBvUoAZtCnAFAkJHgOAKI9D0NGhKHXSsBKhjMVBTnfjiEFQZb3/LsB6E5TkYlD2FGQJAh4UCR3NMCS3UJpQ2rn5huLjjHcNG0Gn6oENcSUlLoIu3XQQZvD/9QT2QlZAZoKMnfv1n+EnvdLseeGMA8KT5OlLDDHRbwcxnDH0g94LWg5HiX+Aauh/k+nP5S4Z5GdIMxejuXfiCYTq+KWFCaYkU9wPrry+E3A8Mk9+kpgF6xj3jcxuG/7SyELhzxvzCF4ZTDKOA7BCwE2BwXanDsIsWQQhKmOonGARGo2dwhgBoOgt0cj3ovkHQLkfQLjl+KABdAA1qRIB20oFGtEDr4UC7Q0HneYFG1a4CwUCsLxtNS5ghAFp7D7oySRUK5IEAtHsVdMYXKB5BcQhqxIJ2u96BAtCBrqARL9DuzqEYplxMDDyGvAxmxrwMFoqcDCrA6SolaXYGWT5mBgHgongOLuAp+F/+MHz+CjzwFdQRBJ419vrxT4YHt78xXL/yleECcMTrKPBcr3ej6Wk0BIZzCDDes2T4BjpdlxaezLzBELXhDcPy0SREfgiALqXtUGGYRoswBF2UanCKQWo0fkZDYDQERkNgNARGQ2A0BOgbAkzYzk6hlhPoeafScE042sC7qWjlt/fAO9NGM9xoCIyGwGgIjIbAaAiMhgD9Q4CJlttF7QUY3EYjlbIQcKBhGL74xfBsNH5GQ2A0BEZDYDQERkNgNAQGoAFGyysmQCNgKpwMGqMRS14IGPIwmMtyMCjQKvxAay5G42Y0BEZDYDQERkNgNARGQ4D+IcAE3F1yk5bWpkoxFIxGLHkhkC5N26sm7nxjuDEaN6MhMBoCoyEwGgKjITAaAgPQAAMebHeJltaC7qxS5GBQHY1c0kJAh5vB0E+EIYyW4XbtK8Ol0XgZDYHREBgNgdEQGA2B0RAYgAbY+c+0PSaClYmBtVuFYSYjA8Pooa9Exi/wnjXWLlCYMTIw0ipJ/P/P8B90ovVophsNgdEQGA2B0RAYDYHREBiABtizXwyPQafX0tJqawEGxxI5hobRCCYuBBoUGXqBZ+iY0jK8rn9juPz5L2mHFI7G32gIjIbAaAiMhsBoCIyGAHVCADwqBbzbaTetA7RIjqEWdKbVaMThD4FcGYbKZCmGXFqH08H3DLtH42I0BEZDYDQERkNgNARGQ2BgQoAZZC3oOgF/UYZwWjvBRYjBG2ghy/GPDIeAx+//H410RAiAwqVRkaGvQI6hmh7h0vGQoWZ0F+RoChwNgdEQGA2B0RAYDYGBCQHwGiPQfYNXzRleA6+H4KaHM459ZDhYcpsh9f4PhtujEc/AoM7FoNOvyjAXdHUHPcLjzW+G1/onGST/MTD8HQ3/0RAYDYHREBgNgdEQGA0B+ocAeAryxz+G75vfMKyhl/VW/Az2B40YrnYqM8xQ5WTQHKkRr8XNoD9BlWHBXkOGC/RqfIHCGnS57Wjja7S4GQ2B0RAYDYHREBgNgYELAfguO3M+BtsNegyHBsIpV74wXDj8gWHv5a8M50AHw375C7yk9S/Dl+GUMHiYGXhBWIGDQVmPh8EYeMm2izo3g/ZA+NHxHIPeDeAi/NGMNxoCoyEwGgKjITAaAqMhMDAhgHLMwS4DhnO6PAyGo5ExfEPg2AeGA8FXGBxH43g0BEZDYDQERkNgNARGQ2DgQgDlbK5pTxi6RyNjeIfA1KcMXaNxPBoCoyEwGgKjITAaAqMhMLAhgDICBjos9YARwxU1rpG7Lms4J8hznxlOel9ksBjNdKMhMBoCoyEwGgKjITAaAgMbAsxo1v9/9YvhOT2OpBiNePqHQO4thnjg0RP3R8N+NARGQ2A0BEZDYDQERkNgYEMA43qgbW8Z1h39wLB/NGKGVwhse8Ow/uhHhn2j8ToaAqMhMBoCoyEwGgKjITDwIYD1rkEVTgaNPcCjEdiZGNhHI2noh8CXPwyfHc4z6Dz9yfBoND5HQ2A0BEZDYDQERkNgNAQGPgSYsTnh3R+GN3//M/y1FWBwHo2koR8CdfcYCg9/ZNg7GpejITAaAqMhMBoCoyEwGgKDIwQYcTkDODfJvEaXYZ8lP4PdaGQN3RDY/Y5hS9w1Bj+gD0avfhpNyKMhMBoCoyEwGgKjITBIQoARnzvEWBkkgVOR50XZGMRHY2zohcDjHwwP3C4wGH/4w/BuNP5GQ2A0BEZDYDQERkNgNAQGTwgw4XPKq98Mz5OuMwT9/MfwczTShlYIfAXeJJBwnSFgtPE1mnJHQ2A0BEZDYDQERkNg8IUAMyEnPfvF8Pjud4ab3sIMwYyMDIyjkTj4Q+D3P4bfoIbz6c8MR0fjazQERkNgNARGQ2A0BEZDYAg2wEBOvvWN4drr3wwvXYUYfEYjcXCHwL//DP+A533F7XjHsGE0rkZDYDQERkNgNARGQ2A0BAZnCDAT66xLXxjOAg9pfeEsyOA1OhI2OCMTNPKVd5shfsMbhuWjGW40BEZDYDQERkNgNARGQ2DwhgAzKU4DNcJuf2e47ibE4MfCyMAyGrGDJwS+/WX4mnKDIRh0kO5ovIyGwGgIjIbAaAiMhsBoCAzuECBrTZcpL4P1XE2GtaO7IwdH5D75wfAIuOYr8PJXhnOjGW40BEZDYDQERkNgNARGQ2DwhwDZi+pBR1TM0GBYMXpO2MBG8r73DDtybjLEvP/D8HY0w42GwGgIjIbAaAiMhsBoCAyNEGAm15lf/zF8Wf2KYTHwiIof5nwMtsyMDMyjkU6/EPj+l+F7432Gkpp7DPk//jF8Gw370RAYDYHREBgNgdEQGA2BoRMCVDlWAnR3ZKcKwwwrfgb70cinfQiARr0q7jBkPf7JcH80vEdDYDQERkNgNARGQ2A0BIZeCFD1XC8vYYagcnmGFjUuBs3RxED9ELjyheFC+0OGKmADbPto+I6GwGgIjIbAaAiMhsBoCAzdEKD6wapAA5mCRBmiMqQZinV4GAxGEwflIXDuM8PJ6U8Yera8ZVgLNG30TsfRRDUaAqMhMBoCoyEwGgJDPARoerI9aG1YjARDGnBkLJCLmYF7NLUQHwKf/zB82vKGYc2iFwwzL3xhODUadqMhMBoCoyEwGgKjITAaAsMnBOhytRAHEwOnkyCDJ+gQV3tBBjdpdgbZ0USEGQKPfjDcP/CeYdee9wxbDwLpX/9H7+AcTSejITAaAqMhMBoCoyEwHENgQO52BDbA5Ax5GMw0uRn0VLkYNGTYGeTF2RikBFkYhDmZGTiHc1IDHpj67d1vhjegi85BDa47wHs2r31luAiaZnz5i+HZaDYbDYHREBgNgdEQGA2B0RAY/iEAAPa2+jcAvVhsAAAAAElFTkSuQmCC;clipPath=inset(0% 78.67% 0% 0%);imageBackground=none;imageBorder=default;strokeWidth=2;" parent="1" vertex="1">
          <mxGeometry x="326.57000000000005" y="107.5" width="150" height="147.65" as="geometry" />
        </mxCell>
        <mxCell id="JaSobmvrDUTWLf8hYepu-2" value="" style="group" vertex="1" connectable="0" parent="1">
          <mxGeometry x="98" y="248" width="609" height="85.70925110132157" as="geometry" />
        </mxCell>
        <mxCell id="pxrJhPeLCdRWbbSAXVPi-15" value="" style="shape=image;verticalLabelPosition=bottom;labelBackgroundColor=default;verticalAlign=top;aspect=fixed;imageAspect=0;image=data:image/png,iVBORw0KGgoAAAANSUhEUgAAAmAAAACACAYAAACssNV7AABBJUlEQVR4XmNkGAAgzc4gZ8jDYKbBzaCrxsWgKcPOIC/OxiAlyMIgzMnMwAlz0v//DP/f/2F4B8Rv731nuAXEt+9+Z7h59SvDxYufGc78ZWD4wzAIACsjA5sBD4OpNjeDvhIngxoIK3IyqID8I8jKIITsxG9/Gb69+83w5tVvhuePfjDcvwP0zzWgf859Zjj58hfDM4ZRMBoCoyEwGgKjITAaAqMhMOxDgC4NMA4mBk5HQQYPF0EGb3tBBjdgA0yW0pAFNmS+nvzEcOToR4b9W98wrH3wg+EOPWNLlZNB01uEIdiKn8HBhJfBCrnhSK47QA2y/e8Zdu59z7Dt4HuGXb/+M/wczYOjITAaAqMhMBoCoyEwGgLDLwRo2gAz52OwjZZgSPUWZgjiYmbgpmXwgUaQ1rxiWLLhNcNy0IgZLewSYWUQDxZliA4WY4jR5WEwpKV/Pv9h+LTlDcOaRS8YZl74wnBqNPONhsBoCIyGwGgIjIbAaAgMnxCgegMMaCBTgChDRJY0Q6kOD4MBvYPq+1+G72teMyye9oShm1qjYmqcDFpZMgxlgaIMkWxMDGz09hOocQnyz9a3DOuAdv8fzYCjITAaAqMhMBoCoyEwGgJDOwSo2gDzAo50lcsztIDWdQ10sPz9z/B35UuGBR0PGWpe/2Z4QY57QGvVKuUZ2oJEGaIYGRkYB9pPV74wXGh/yFC17z3D9tGMNxoCoyEwGgKjITAaAqMhMHRDgCqNChVOBo1OZYbpVgIMDoMtKEBrxXoeMTTMesowgdhF+2yMDOw5MgzlubIMlcD1axyDzU973zFsr7zLkP34J8P90cw3GgKjITAaAqMhMBoCoyEw9EKAogYYEwMDczZwaq5YjqGenYmBfTB7//IXhvM5txhib31juIrPnXo8DMaT1BgWqXMxaA1m/4CmWlsfMFTMfc4wGejO0WnJ0dJnNARGQ2A0BEZDYDQEhlAIkN0AE2NlkJyhwbDCkp/Bbqj49+c/hp919xgKgAvbZ2BxM2OmNENxlQJDOwsjA8tQ8RNwOnJHzk2GGFptPBjNzaMhMBoCoyEwGgKjITAaAtQPAbIaYKBjF+ZqMqwVY2OQGIqRAlwbtrD0DkPa7/8Mv0Du52Ri4JqoxrDQV4QhZCj658kPhkeJ1xkCrnxlOD+aSUZDYDQERkNgNARGQ2A0BAZ/CJDcAAM2UkInqzEsHuxTjoSC/tQnhqOxVxl8gIeosi7XYdhJ62MlaJ0UQGvdUm8whI4u0B8tdkZDYDQERkNgNARGQ2CYNcBiJBjSQIvtmRgZmIZD5N74ynAFdEisAieD8nDwz+9/DL/zbjHEb3jDsHw0842GwGgIjIbAaAiMhsBoCAzeECB6BAzU+OpWYZg5GpmDOwT+/Wf4l3WTIXrjG4YVo3E1GgKjITAaAqMhMBoCoyEwOEOAmRhngaYdJ6oyLBgMZ2GNJiT8IQCKI3chBv8LnxlO0/t6ptG4GQ2B0RAYDYHREBgNgdEQIC4ECI6AgRbcr9Zl2DsYz8MajWTcIfD1L8MXv0sMNqCLvkfDaTQERkNgNARGQ2A0BEZDYHCFAN4GGOioid2GDOeG6m7HkZ7YQJd7u19gMPnwh+HdaMYbDYHREBgNgdEQGA2B0RAYPCGAczE96JDV6RoMy0cbX0M3ucpxMCiCpo6BPmAczXSjITAaAqMhMBoCoyEwGgKDJwRwrgEDnnBfHi3BkDwaWUM7BJS5GNRf/2J4cfELw5nRuBwNgdEQGA2B0RAYDYHREBgcIYB1ZESZk0F9ryHDxaF+1tdoIoOEwJc/DJ8dzjPoPP3J8Gg0TEZDYDQERkNgNARGQ2A0BAY+BLCOgM3SYFilxMmgOhpBwyME2ID3dEqzM8hvesOwajROR0NgNARGQ2A0BEZDYDQEBj4EMNaAeQkzBNkIMDiNRs7wCgFvEYYga/7ReB1N16MhMBoCoyEwGgKjITAYQgBlChLIYTpgxHBFjYtBczR6hl8InPvMcNL7IoPFaNyOhsBoCIyGwGgIjIbAaAgMbAigjID5iTCEjTa+hm+SNOJlMHcUYPAYzXSjITAaAqMhMBoCoyEwGgKDqAGWJcNQOhohwzsEgLtby0bjeDQERkNgNARGQ2A0BEZDYGBDgAVmvTkfg60eD4PRQDjnyheGC4c+MOy58pXh/MMfDPd+/mP4AXKHKCuDOGhHpjk/g429AIMbHwsD/1BIMO9/M7w78IFh56lPDEfvfWe49fY3w2uQu0EXfytyMKjoAsMZ6B9XdW4GbXr7x1qAwVGDi0H3xjeGy6OZbzQERkNgNARGQ2A0BEZDYGBCAL4GbIIqw/xwcYYEejnj9z+G38tfMsyb84xh4u3vDNcJ2cvGyMDuI8IQkivDUKHBzaAzGBMM8Kyts1MeM3TsfMew6fd/hl+E3KjFzaCfJsVQGCLGEMPMyMBMLz/Nfsowse4+Q8FophsNgdEQGA2B0RAYDYHREBiYEAA3wEAjM1fNGV5zMTNw08MZxz4wHCi5w5B2/wfDbVLtA20UiJVgSKtTZOjmZmbgGQwJB3jVz/u6ewwFq18xLAa65z+pblLnYtDpUWGYZcLHYEkP/7wBjsjpn2SQ/MfA8Hc0442GwGgIjIbAaAiMhsBoCNA/BMCL8B0FGTzo1fjqe8TQHHKFwZmcxhcoeICtm3+LXjDMcD3PYHTnG8PNgU40oOlTl/MMBsDG1yKgW/6T456b3xiuBFxisAONTNHDPyKsDKIW/Ax2oxluNARGQ2A0BEZDYDQERkNgYEIA3ABzEWTwpof1FXcYsrofMdSBGlGU2gdqwAEbLbZXvzBcHKjEc/YTw4mgywwO1DhhHjgU9Qc0Ldj2gKGKHv6hV5yPZuzREBgNgdEQGA2B0RAYDQHMEAA3wOwEGFxpHTigka+FLximU9Oet38YXkdeZfB4/pPhKb0j9/53hjsx1xi8P/9l+EhNuyc/YWif+4xhMq39Yy9I+zgfzXCjITAaAqMhMBoCoyEwGgLYQ4BRio1B9qwZbe8IPPKBYV/YFQZXaox8YfOGGR+DzQZdhkOMjAyM9Iho0AYCz4sMZle/MlyghX0sjAysm/QYjhryMpjSyj///zP8Vz/BIEjtBuRoRhsNgdEQGA2B0RAYDYHRECAcAkzASt6MlgEFaqyU3WHIoFXjC+R24HEPRxa/YJhFrwif+Yyhj1aNL5Af/vxn+A0Ms3RQI4lWfgI1VvV5GExGM8loCIyGwGgIjIbAaAiMhgD9Q4BJk5tBj5bWgo6aIHfBPSnu6n3E0PgDen4YLf3z6Q/Dx8nAoyZoHVWgM9FofXm2Fo3jfjRDj4bAaAiMhsBoCIyGwGgIYA8BJhVOBnVaBs7sZwwT6BH4r34zPN/0mmEVre0C7Xb89JfhAz38NPMpQz8t7VHhYtAYzRijITAaAqMhMBoCoyEwGgL0DwEmOQ4GRVpZCzqi4c53hhv08tb61wzLaG3XOjrYAfPD+S8MJx//YHhAKz/JsjMojGa60RAYDYHREBgNgdEQGA0B+ocAizgbgxStrD34gWEXPb108hPD4V//GH6xMTGw0cLez38YPl34zHCann7a/55hZ5wkQzot7JSgYdyPZmbqhAALEMgDgSoQKAGBGBBwAQEbEIBs+AQE34DgCRDcAYJbQPAOCEbDf3CFgAAQgOJQGQhA8QmKQ34gALnyNxB8BYI3QHAfCEDxeA8IQOJDPR4FWRiEFYDXr4E6+rIcDArsTAwc/MwMAjB/AZeNfAdd1fbiF8Ozu98ZboLw938M30bT72gIjIQQYAFlEFp5FDQCRs9ABGVc0IgbrdY2ARfeX6T36fHXvtLunDNBVgZhWsWPIhD0AwEh80GNhSQgGAyZbR4QCAEBIbcUAgGooqSVm9WBIBAIHIDABgi4gYAUu24CwQEg2AsEW4DgOxDQyq3JQOALBNjMfwQE+UDwHwgGIn4joACb3XOBYDMQ0Mpd7EDgAQSuQACKR20gIMUuUJwdAwJQPG4EgstAwDAEgDArg5i7EIOfFT+DgzEvg4UCJ4MyKc7++5/h7+UvDOePfWTYv/0tw4aznxlO0HIDF6lBWinP0KbGxaBFTlTMAi7HOf6R4QCtotGan8EpRYohjxLzae1GmNs4mRi4JqsxLKbkCj7gfcZXOh8y1ODzryEPg3meLEPlYM06LJzMDJy0ctyDHwx36e3xJz8YHtKqAfbkJ8NDevsHuIHhDq3sBGUCWpkN6t37AwEx5i8CAlBFM5CZBFRJJgIBMW5oAAJqu5UTCED2JwCBKRBQYr46FKQDAWiEbA0QTAGC80BAbXfrAgG+eAY1wnqAYCDiVgMIcLmNVulNCwhygSAcCASBgFx/g9KDMxQ0A8FFIFgIBLOB4AsQMAwiwM7IwBEgyhAJukvYHHgkEBMjAxO5zgNVyAa8DCYgnCXDUApagrHiJcP8Bc8Zpr37w/BmIL0Nmi3KkWEoJ9d/wIbkf1o2wKTZGeQ8hBn8KQkjUPjT0o0wt/mKMIR5izAEUeJWPhbESCouc4BxJklpmNAyzTHR0vCvfxk+0zvDgO5lpJWdQLPf0ds/wDD8Qis7geeNsTAMApAJBAPtjCwgGAg3cABBMRCAppymAgGljS90P/ABAWiE8RwQbAMCMyCgpz/bgYDedg5EPOoBAaihewUIMoCAksYXNvfrA0EfEDwAglog4AWCgc4z/CwMgqARoXNmDE8mqDHMswReb0ZJ4wubf0DTlqXyDI3AsyofNygy9NFyxoZQeIaJMcRT4j9XIQYf4DVw4gyDGDgLMniBzgaltRNB9zkzjAIGmjbAgFOC3+kdxqBeBq3spOW5XLjcDFojQSv/0Ov+T0LuDwICCSAYqPwoCQSgKT962+8GBKAKGzRCRA//ewLBCSCYCQTUbiDgCjvQGrblQABb7zTcylxQQwjUMAI1cIOBgBEIaOlHYSBoAoJrQDAQaRbkNzZGBvZMaYaSkyYM90DTO0I0XMoAC0sO4NqxdGmGwuMmDHcixBmSgOKMdE5LjFHiDMmU2Anq8IaKMcQO5jwAamBGSTCk0NKNGlwMuiZ8DJYMo4C2DbDR8B0NAWJCAFRJpwLBQIUWyG6QG+hlP2jUaxYQ7AQC0KJsevob1EBIA4LrQOAIBPSwG7R5AOTf4ZYbQCN7oAY0aE0gMxDQ038yQLAOCFYCAQ8Q0MtubW4Ggx0GDKfrFBm6+YmYAqK2u0B29qsyzF2oybBRgIVBiF7+tuRjsCN1PRs2twEbcSmDPR/ESDCkMjMw0Gx2ZHT0C5ECWBhGwWgIDIIQADUK2oDgLxDQ0zmghhfIbnrZqQAEoIrTEAhItRO00xE0BfUWCEDrgEANOdACfdAIHmiHHWhnHbFmigPBHiCoAoJOIKC1/8OAALQpYLg0xEDTjBOBALYbldjw+wEEoF2OT4EAtPMRtIMVNIoGGpEEpQ05ICAlLkDhCpr+BI0igxrVtIzHDGmG4moFho7BsHTBTZjBdyc3w5noqwxe9DjqiFqjQsCzF9VNeRmsT39mODpYKx7QuinQdOmOdwwbqO1G0LrjkEE+CkjPeBltgDGMgsEQAqAePWg33QYgoKd7QHZKAwE97AQtWN8FBMRONz4DghVAAGooHQGCz0CAy52gkS01IACt2wb5CTS9yQQE+PwFku8AAhUgADVCab1bEdRgAe3sA40aDeVcB+ooVAIBMX4AhSmo4bkJCPYBAaiR9A8IcOkFNaitgAC0exK0kJ+YBhlos8FRIABNMZ8EAmqHLSsjA1unMsP0SAnw1N+giTrQ0RYb9BgOAxthnhe/MJyhlcN4mRn4vYUZgqllfiRwCnUwN8BA/gSOgqXRogEGWnwPXDzPzzAKwCHANBoOoyEwWEJgIBbjZwMBPfwP2h0HqoCJaXyBKlE/IABVvqAF+tuBAF/jC+R+UEUPOn5iGhCAKmLQaApoZAs04kLIfylAANJH63AAjdiBpsxIGakbbLmT2MYXKNxBx7CAjmMBNaYmA8FVIMDX+AL5FTQqthsIyoAApBe2bo9QOIBG0ECNe2pv4gCNWCzTZtg+2BpfsPAAHnshslKHYTdoXRGt0kogcIcnNU8L8BNlCONiYuAZzDWPkyCDhww7gzy13Tg6/YgaoqMNMIZRMFhCAFRRgUZj6OUe0GkNoBEjWtsnCgRbgUAECPDZBZpiDAACCyAAnVFFyXTsYyCoAALQ+qtlQEDIj6ApNdB0JK3DAtQQnQQEQzHXgcKImJEv0KYDULgXAcFDICDXr6DG2g4gsAQCULoATVviMwu04xWUbkidxsRlJmjka4EWw0YbAQanwRxfoHVhy7UZdtDqUHFqL0rnZmbgATXCBnOYMjIyMFJ7vZomF4Pe6OJ71FgfbYAxjILBEgKgaTRQJUcv99BjxI0VCEBrvkAjUvj8BZpqBB3WCTp0k5r+fw4E0UAA2qFHaBStFQjosbMOdHgr6IzUoZTzQBsWQGep4XPzRyAArcWKAgJQuFPTf6B0AWq8gkYQ8ZkLWtsHaoRRY5SxW4Vhlp0Ag8tQiCcJdgap+ZoMG4Dr01ip6V5Qo0Gfh8GY2mEQKT64pnOx+Q/Y8Eym5mJ84I0uGaO1LWoIjK4BG00RdA+Bl0AAqiiwWQw6s6oGCIiZOqPE4aAKCnToKS4zXgEB6NofSgOnGghAp9njMwc0UtUFBLRcgwVqBILWH4FOxgeNzuByzxwgAE2Bgtaf0TJhgBbjnwaCu0Aw2LMg6BqhJUCAb6cjyB8+QHADCGjlH9ChupFAADqCohEIcNkDWpQPmn4GHQhLrlviJBgygAerxlPqly9/GD7ve8+w/SjwZPsrXxkuPPzBcO/db4Y3oNPtgUdLcIJ2MgIbObqGvAxmwIM5gyk5RBtohmmpHENj+0OGKmrFQTSNjmQw42OwVuZkUAddvTRY0z81F+MDp7K5Q0QZYgZ7Xgdei/XmxU+Gp/Ry52gDjGEU0DsEQJXUbSDA1jABrWUBjY4sAAJaugs0SoHrbCrQguY/QEBpA8wECECNSXz+AB1hMAEI6BEHoAaYPRAcBAJcjTDQVUyg09a9gYBSN/0CAly7BEE7/0CjOaAF5yB1gzkXgka+pIAAlxtBjS/QTQqgKWRa+wPUSAedAwYKM9Aht7jsywGC9UAAWndIqptA66lalBgmUeKXW98Yrk9+zNC+9S3DWlx3O4LOOATeAfkUhPd/YNjR95ihSZebwahMnqHZRYjBixz7QSfV73zHsOkc8AojSuMCdN5ZkChDNK3iFDQK1vKAoXwwp31qLcYH3pQQwcPCwMswyMG6VwxL6+4zFNDLmaNTkAyjYCBCYDoQ4LKXHlOD+E6+x+c2YsMKNJ0KWniNb9SkGwjo1fiCuRvUSPACAtB0GS6/gORBmwAoTRegA0pBI4m4zDEGAtAuzMGcA22BADSFi8uNoHAELZSnR+ML2Q2gcAOFL76wA92sQOr5dsDTTZl6gFOPrEwMZE3lffrD8LH8DkOmwzkGnTWvGRaTerH25a8M52KvMXjHXGXwfv2L4SUpaePVL4YXFXcZsi5+ps6OSOAVNgHA+3KJPmvsxleGK6S4F3SyPrWnTKmdl6CL8RUoNRe4+D6dYRRghMBoA2w0UQxICICubXkNBNgsBx1waQQEtHIYaJE7rnO4QG5aDQSU2g1acwWyB5c5oJEJYo8yoHY4gHZL4pt+BdkHmhKl9HBa0FRzLBDgcz9oBBA0dTcYsyGoEU3oHkuQ/0CjuQPhftBOSdBoJi67QcdTgNbbkeI24NRjujEfgwU5/jn/meGU03kGvUUvGGZQeoH23vcM2xzPMeie+kT4vCzQNGfXQ4Y6izMMKotfMMz8y8DwhxrxQer049QnDF3EuBfmNlE2BnHQ1T8MgxiAFuNTunMRdHgvaHqYYRRghMBoA2w0UQxICICmUOYCAS7LaXk3I74RNpCbKJ0SA1XcLUCAy2+gwzdBFSO9D51Fdg/ovLXFQIDLjaAdoqD1RpQmDtDRCKCRPnzmgKabQefADbasCJqGxXePJegSedCC94FyNyj9gC5wB6UnXG6oAwLQRhBi3Ahak1Ukx1BHjn92vWXY7H+JwfbpT4ZH1AqPt38YXodeZnDe8ZZhIzYzf/9j+D3vGcMUYMNLuf8xQzNwtO0rtewGHcFgy8/gTKx53/4yfN32lmH9mlcMi0lxA6XXG9Ej7YGmSikZqQNNYzKMAqwhMNoAG00YAxYCoDsJcS08B1X+oMXP1HYc6CgI0AGX2MwFuQXkJkrtdAcCUAMGlzmg3YagE+0HOumBRp/wTUWC5KnhRtBGhFNAgMss0P2GS4GA3tf5EPJbARDgUgMKN9AxEwMdh/eBAJSecLkDtHYtFAiIcSeoohRjY5Ag1U/73zPsTLnBEPL7P8MvaofHr/8MP9NuMIQd+sCwB9nsja8ZVtqeY9CsvseQC2qoUdte0H2ToNEfYs3d/pZhw7d/DF82vWFY9esf8eHgDFzrJspKepjTM92BRurchRj8yLFzqCy+H6h8PNoAYxgFAxUCoEbINiDAZj9ol2I8EFDbbaBdluxAgM1c0Fld1GgY5QEBLneDrhEaLOdggdyCbw0aaJqW0A5OYuLnNxCANj2AdvHhUm8HBKDRmsGSG0FHguA7Iw4UbqDwGwzuBaWnF0CAyy3E7IYErf1KkyJ98TFwF9+t9BsM4bRofMH8AzIbZAdwdO3x0Q8M+z0uMJhm3GSIAO6ovEuL8AeFRbgYQwIpZsNGvj7+YXi/+x3DFmL1MjMyMIeJM8QzDHJA7hquobL4fqCCf7QBxjAKBjIECC3GB03nUct9oKt38J0zRo3T4EGHroJGwHC5GVRZgu5xHCypDnQ90HcgwOWeGCCghltBOwXTgQCfWaAdo6BdmoMhbPBNv/4EgsF0mCwoPYE2fOAKN9BaREKXvlvxMzjIcjCQtNj673+Gvzk3GWI//2X4SOs4+/CH4Z3LeQaDkCsMTrS8dgjkD9DZZzIcDHLE+gm0+B95hG7ta4YlpITHQJ0J9uA7A9ENWFCYAK9+UiI1nklpuD37yfBkpNXGow0whlEwkCEAumYH12nhoGk80AGY1HKfBxCArnfBZh5oKmcnEFBqF2j3IK47GEEnm+Nb9zYQ8fAeCFYBAS67QSewE7pTklh3gw6bnQcEuNSD7AGd2k/oxgB6hFMIEOCyB7RJ4x0QDKaSAxSuoKNTcLkJn39AekA78kj1D3Cx/cwLXxhO0SscQI0wethF6rqsda8Zlv1jYPgLc9vedwzbgG59T6xbgeeBqQHPBbOhd3ra8pZhDbHuBE3HRoszpJDiRh1uBkNSFt8ve8kwl2GEgdEGGMMoGMgQADVK8K27ouZifEJHTxC6p4+YcAI1WHCp2w8EhK6TGYi4WAgEuOwFHZhrDgTUchdoehbfYaWgNUsg91Bz5JNUt6tDAS59oPVqg63UAE1B4utAgC5ox+Vm0JSbmzCDLyl+Ap7h9aP3IUPDcCs9hVgYREDHT5DiL/SF96B1a6A1aqSYMRCjYKA4XP2SYRGx7iR1MX68JEMmsWaDji/Z/JphFcMIA8PuINa5zxgmAXfNbKBFPD74wXCX3unj0Q+G+4nXGAKHc7oEjQqBTvbGtlvLHwhAlTKlJ7ODrgICnW+FLRxBU0rzgYDSMAY1GkAHi+IyB7TGbDDG42Eg+AAEuDY9gM7COg4E1HA76LJp0EG7oNP2ca3FA8UTaIF7LxAMRHjhW/cGmq49AASDMR43AQGuA3RBl3SDwhuU1tHdDjp9HngivSApfgI1Omix+H2gwzVIjCGajYmBjVh33PzGcO0q8IR/dPVrXzEsATZAiL56x0+EIazmHkP+178Mn+kZBqAjQ1KlGfKJsRO2GB90uC4h9cD7LnlBl5gT65fVrxgWATcxfGMYYWDYNcBAB/mB8HCJR9D6ih3vGDYM53QJOqwTdC4YtnU3oLOoUoEA39UrxIQNaO0XrlEV0BTcGyCgNIzVgAB0kjwuc3YDwWCMR9DU1V4gAJ1dhs19+M4zI8c/F4GgGAjw3a0IOuX9EBCAriuid5iBLr/GZSfITbS+Jotc/4KO/MClF3QjAehsPWwNadD6L1LtXP6SYd5wLJNInX4ENRywhcPpzwzHQJ1n4LopRWLCiYuZgdtfhCEcOA03h57heuc7w41jHxkOAtOAPTH2gtZ0EdMAAzW+QJeOE+uXRc8ZZjCMQDB6FRHDKBgMIQBajI9r4TOoAQbaao9vjQs+P4B6/vgOpKTG4nuQ/fgOjwWd1QS6CmiwpjbQiBSuBhgtDsUFhbkrEIBGOLGFCWg0FLRmDGQ3vqMyaBGe+Px7FggGaxyCdvCCDhIGbQTB5kZcDTDgQZn6pPgJtFgaeNXPyeFWchrwMJhqcjPoEuuv//8Z/oOursGh/j+wcba4mIRz1UCNP3o3wEBuX/KCYRaxDTB7QQZXBQ4GFeBs0B184UTK4vuTHxmO3PrOcA149prCQKcp0CHEwDijy9Q68PiWHaMNsNH216AIAdA02BUg0AECdAdJAwFocTvoQmlyHAs6BwnXwu4LQHACCKgRCLgW+IPMvgwEA3nwKiH/nQMCXGpAh6SCGkSg4ySolVhAZ66BjgS5BASg+MVmLui+StD6QNCUJT0TKb54xBdOgyEjgdyHaxcuLn+BKlRS3H4cOGICVP9/uBWdwDVOyaT4CXTB+PNfuHfugaYhSWmAgSp/VU4GzdvfGa7TM2y3vmFY+w5496cQK4MwMfaCTsZvfsBQhkutHg+DMRAbEesHUANwsKQlI14GcxCmh3uA694+jC7CZxgFgyUE8B1JQclifHx6QfflUcv/uC64BpkP2mU5mFMaPveBDkiVBQJqux+0kxA06olv8wPo0FzQCCi9wk4ACnDZNxgO0MUXFvjiEVf6VOJkUCUlfIfj6BfwwFAu4MXbUaSEA3AdHN7jJu7/YLgNup6JFDNJbQRSI1+ANg2sesWwkFizgOeWJbAy4l4nR8roF2gX5uY3DKsZRigYHQFjGAWDJQRAV+N0AgEPEKC7CXQoJmiN1S0gIMW9BkCAa00PaGprORBQy/9iQIDLrEdAMJhTGqHLpCWB4B4QUNsPoJHPJiBoAAJcZoPO3DoGBFeBgNZhKAEE+Ox4DASDOR5xHekCcjNoRys2t4MWV5PiJ0LTT7jMAq4LiupQZphGj/AD3UlJyrVIPiIMITwsDLzEug20g5CYtVDAhs0i4FEMZsSaGyrGENv2kKHyz3+G3/RMZ6A1WBnSDEXE2CnCyiAK2ikKbDhh7FokefE9cBfmz/8MPxhGKBgdAWMYBYMlBD4DwRIgwOUefHc44tKDb/QLdNwBaFcetfzPBwS4zKL3OiZS/QS6/xKfGzmAgFbpBHRvJqghhst8kN2gjRKcQEDrtErIn4Pl9Htc4QDazYpLjhsI0OW4mBh4SA3T5z8ZnpITD6BREz4WBn56YNDRGqS4kdSRJ9BO+y9/GT4RsmMT8MokYGOK6MvBRdgYxFyFGHwY6AxAo3VHPjDsI9Za0KXt2NSSuvh+4QuG6QwjGIw2wBhGwWAKAXzTkKCriUBXFBHrXn4giAYCXOrx2UVOmOBzG74LkwdL+ONb48ULBLRyJ2htHOiqInyHm2oBAT1On8d3/yho3dpgXscHih98OzSxxSEnMwMXqfH6mYiGx1AqVRU5GFQt+RnsSHEzsZduv/vD8Aa02JoUswfqZHzQwbrEutNGgMEJ29pBUqYfQbsvgVdZ3RzJNfBoA2y0/TWoQgC0KPsoEGBzlCAQ4LpIG5t6fA020KGo+A4EJSdQsJ1jNpSSF2gUbKDcC5oCBS3Kx2d/ChDQe0E+snuouQmBVuGM63J7kH3YLjsHjkqxMoxwQGqD581vhtcHPzDsJjbYQLshSQliJ0EGTzFWBkl6RwtoVA/kN2LtBS3GR1YL2kU6VBffD1QWGHZrwKTZGeSAhwoKMYwCokIA2yGCAx10oJEpayDA5g7QlCIxh6aCzvzCN2VJzcX3MHfim8IbCo0zbFNUML/R4+yrjUAAOhssBwhwpUHQrkjQ2WCguyVpkU7xjVSCztIa7MUKtkYWzM3YLkP/9pfhK6l+4mBi4BguxSszAwNLuDhpF29veM2wnJQ1WrveMmz6/IfhEy8LAx8x4Qa6oBvkpslPGNrpGc6gS89XvWRYkCXDUEqMvaDF+B0PGWpgF7EDpyWJPnj23W+Gt6DdlwwjHAy7BlipHENT+BC4XX6wpDvJIwyMgy0PgA5l7QcCbOcZmQAB6FRvQgd0gu6Q1AACbH57DgSgyp7a/sZ3qTVoOnQwlzWgButAN8BA4VMKBKCT9/WBAFt4gdbZgc4HAzXQaTFiR6ihCYrHwbyeDzRKjCudYfPbJzIu0gYeVyDC8H141JxOQsDRJjYGCVJ8AzpeghT1oEXmoJ1+URIMRB9zARqVAzbAOoD20PW4D9A0ZKY0Qwno7kdCfkRejM/DzMDnL8oQQWy4gHZdgnZfMoxwMDoFyTAKBlsIELoaiJgjKfCpmQUE5B7qii+sQBdb45IH7SIczCkNtEMOdOsALjeCDvikh/tBjQTQNCO+kShQI7wNCGjhHkL+BF2LNZjjEV86w7HG7j9wFIykK2Bk2RkUhkupSeoF07e/MdwAXkB+mlT/r3nNsIQUPYqcDCoWfAy29A7nh8Dr9g59YNhDrL0JkgxZILUhogwxXCSsJ1z4fGQvvoeF72gDjGEUDMYQAE014VrPAloHhu/KH1AlietSbNAialADjBZ+xndGlDwQDOaUBrorE5/78B1vQG1/gdbm5QIBPnNBVxnhutuTEveALrXGN7I2lOMRV/ok9VgJ0N2Rw6HUFGVlkHAWYvAixS+kjn7BzD7xkeHQkx8Mj0ixayDOBAO5b/ELhpnEuhN0gr4yJ4N6jARDGrF6QLstyT3KhNbp7tc/hl+gi8HpgYF2/Rw9B4xhFAzGEACdObUDCDyBAN19oOMIQAvsQdOU2NyeBgS41sJsAAJKL/bGFV74zsnCdsL/YAp3XSDA5R7QPZlfgICe7p0HBKCrivAtul8EBHpAQM34BDX6QQ0V0Jlz2PwLCidQuhyspQYoPEhNn/e/M9whpVFlysdgzTAMAPDMrTgWRgaS6sC1rxmWkuN14Dziv/WvGZblyjJUEKsfdDZZ9T2G3C903nW68x3Dpte/GF4Sez5clzLDDG0eBqKvsyJltyW9kxloZK7uPkMBvewdHQFjGAWDNQTwHRMBWmCP7XJt0DQaqAGGy0/UuvcRm/nXgACXvaApPlxX7gyG8DcDAlzuoMcBqNjsTgcCfI1aYSBYBgT4Fp6TE7agK7Fw6TMGgsGaX0Dr01SBAJf7cKVP0IXMpPjJmJfBQpiVQWyol5ykrMkC+fU4aBTrJ8MDcv1N7NEVMPNBU3qgC7rpHc6gDQakXLZuJcDgQKwbQbssQbstGUYBOARGR8BGE8KgDYGtQAA6QV4OCNAdCapoQKfj7wECZDnQ1COudTA3gQB0/AStPAy6hw90VAGuHY+gjQH4DpodyIgAuQ2X/ceBYCDcBtq1BxoBA52Cj2t9mj0Q1ABBIxBQy42gi8mDgACbeXZAAGr44zvuYaDiEV8cgtyE685T0J2G+bIMVcS6m4mRgclXmCFkwQvSTrUH7bjuecTQSE74hIsxJMhyMMhTK2zNgeurgFNnaqSYR+70I8wO0IXTl74wnCPlqAZQI3HpS4bZ9E5TwPsZZ+fKMFQQsxifFLetfMkwH7ZrkmEUMIw2wEYTwaANAdAdgaC1YK1AgM2RoIX26A0wfIvvQSNqtKw4QQvIQY0wcyDA5l7QmqXB2AADHXKqDAS4EsJANcBA7gHtdq0Cgi4gwOW+OiA4AAQHgYAaiRnU4MNlDqhxbwgEg/FSbn8gwOXu20AAmkrGJn/mE8Ox3/8YfrMyMRB9JliCFEP2Asgp5kTv0gM1wMg99ga41siBmg0wcg47bVRi6KtTZOimJI2B7pwkRT/oYmg1LgbtW98YrtKzoH78k+H+vvcMO4Br5DypZe///wz/B/P0I8MAgNEpSIZRMJhDYA4Q4DoA0w8IZIAA5n5NIMA1CgDaVQe6eojWft0OBLjs8AECfEc9DFQ84FtnBVqQDmrcDGQa6QGCXUCAyw1MQLAUCESAgBruBI2A4dvRGgoEgy3PgK5QwtcA2wkEuNz8/R/Dt1OfGI6Q4id1LgYtb2GGIIYhCED3FfqKMISR6nSgPh5Kr1EipZELc99AnYwPHAWbRc3oBe2ufPSD4R7DKICHwGgDbDQxDOoQeAUEa4EAmyNBa39SgQAmh+/gVdBaIXz35FErENYBAS6zQFfBDLbKGzS1BzphHpebQQ0fbAd40jPRgEYtY4HgJRDgshe0vm4BEGBbF0iqW0EN/s1AgEtfIhAMtoN1QekK3xlgoLs08YUDqcckgMyqUWDoZGcceoeyBogwRHCRcQXTQBWUoM0CoHs06W3/7ncMW17+YnhOLXtJ2V3JMELAaAOMYRQM9hDAtxgf1AADVYagkSXQzkhcfqHl4ntkOy8DwXUgwOWOfCCgRiOBWnEGOtID39lRK4FgMKQPUEM8DgjwTSF7A0EhEFDDvfgaLKANFfjuGKV3eIHSUxEQ4LIXtEsU1/VeMD2gg0JJPQ9MgZNBuVKBoW2olaCkLr4faP8BNzyIuAkx+NLbHX8ZGP4se8Ewlxr2gnZVgnZXMowClBAYbYCNJohBHwKHgADXTjxQ4wE09QKqEEGnpGPzDGjx8XkgoJdH8TUYDYAgBAgGQ6CDRr/wLV4HrRkC3UowWBIIaDSuGwjwuacDCEAHtVLqZtBUMr5z3UAL//EdXEvPMAsEAlC6wmUnaB0laD0lPjd9/cvwmdRdeiDz0qUZCoE79SIYhggATp3qgNZVMQwxECHOkDQQTl72kmEOaO0WpXaDdlWScn0TwwgBow0whlEwFEIAX6MmCwpw+QOfXlr4HXRXJb5pO9CCci4gGOhwLwACfIvvZwABPe6AJCUcQA0f0BotXHpAo6GgUTtcjXFi7QI1WCYBAS71oHADjWYOdByC0lEvEOByB2gNHygeiXHnpCcMbaDF+KT6aaIawwLQBdJDoRwZqPVUlIYNMHw9JNgYpOkdxk9+Mjzc855hKyX2ghpwo9OP2ENwtAHGMAqGQggsBgJch4GCFt7jujvwLRAQWv9Cbf+D3Imv8gadOt8CBAMZ7qCDRpuAAJcbQH4AXYw92NIGaH1WFBDga+AqAQE1bjuYDQT4riZqBgJ8DVh6hB3oSiZ8txiANrGApm+JccvTnwyPgEcezCHV3exMDOwLNBk2hokxxNPCz6a8DNbUOH0ftI4qRIwhdiiW+KCjP0BHcQyE24GNJ4oW44N2U4IacgyjACMERhtgo4liSIQAqMIF7XQj1bGgE9UHYhQHNMqFr+IDrVUCTR0NROCD1suBNjaAbhTAZT/I/fgWvQ9kogEdzorvsF2Q20Br2/Dt7iTG/aBGKL4pWlD4rQeCgRrNDAYCfKNwhNyPLQy6HjLUvv3N8IbU+AXt7gONhE1QZZgvwMIgRI30wcHEwFksx9CwTo/hANBMQUrNdBdi8AOtp2IYogA4DZkIdDojvZ2/9x3Dtmc/GZ6Qay+1d1MyDCMw2gBjGAVDJQRInUoELdgmdvqF2mHwGQhqgQCfuaBjMXCdGUarOGEDghVAgO9qpMdAgG9aazCkF9A041wgwOcWdSCg1K2g9VP4bjgAXU1Ei9P4CbkblG5Auz7xqQOdn0fs6BfMnPd/GN423mcoJjfcwsUZEg4bM9xIlWIoADWgyDEHpC9egiHzqDHDrRI5hnpSrwvCZWekBEPyUC7tQZseLPkY7Ojth38MDH+Ba8HIWowP2kUJ2k3JMAqwhsDoQayjCWPIhMBFIAAdCmoJBMQ4GnRnH76rbGjtcdAUFmiUwg0IsNkFOpYCtLAcNIVKj4M9QY0v0FQu6DwyfH4H7SYFnZs22BMGaPTHGgg0gIBWbv0DBKDwAKU7XIvuQZtAQPdSgo6nwHeRN7XcaAEEoHO9eIAAl5mgdXKg89PIsXP1K4ZFrkIMPsCzskLJ0S/CyiDapMTQXyDLULPhNcPyLW8Z1oIPe/3P8AuXeaDjLIz5GCxB9x+Crt8RYmUQpmacSrExyDoKMLgzDHEAakQe/8RwkN7eWA7cDVkky1ALmgolxW7QLkrQbsqhEuyW/Az2TYoME+jl3tEGGMMoGEohABoFI7YBRu/F9+jhCBqBSwIC0NEUuM5oAi0WPwIECUBAy7VqYkAAmna0AQJ88T0BCGh5XRM109pXIABNNZ4CAnYgoFU6PgMETVCAyw7QujRZIAA1uPGtG6PUjaBpVdC0Or7pY1DjGdRoBDUeybWv4BZDEugEdtCBq+SaAWpEJUkx5IDw978M30F3TgIv/r798S/Dhx9APifwLC5+FgZBRQ4GFVUuBk3QWjJqxOG73wxvP/9l+IhsFmhkjtRrdUDmzHvOMIVW6UqWnUEe5C5SzPcBXgFVzcyQi+4/Wpfhz34xPN71jmGzhzCDP7F2/fvP8G+oTT/q8DAYgDADncBoA4xhFAylEAA1UvqBAHQRMz53PwQC0F2SA+23p0AAulcQNNKF6/BOUGUKmlLzBALQ2jBqHxgLWmsGaoyCzq/CFx57gaAMCIZSergEBMVAQOsNA6BNE6AriPCt27MFAlBjG7QpF9+BvOSErwAQgBrH+M66A5kL2r0JagyC7j2lJB6//WP4En+NwW+rPsMJaqybAja2OHV5GAxBmJbp6/Mfhk8xVxm8P/5heA+zB7hoigm6fookq0F3P/Y+YmiglXtBo35ewNsEeFkY+Ii1AxSOgaIMkcArfWbQO5+CGlOkNMD2vgeuHQM23BhGAc4QGF0DNpo4hlQI/AQC0AgAIUcTc/YRvTwOusonHQgI2QcaBbsDBKAGBb4RDmLdDVonBJqqAjUGCDW+QBU26DR1XNc+DeZEMhUINgIBLd0IGs2MAYKzQIDPHlA4g0YaQeEOmiqk1E2gdAA6LgR0lyOhxhfIrlIgoFZYPPzBcDfkMoMTOYvyByK9fAA2usKvMLid/8JwEtl+a34GRzkOBkVS3QSaiqWlP37+Z/ix6Q3DKlLtAB6lMSBr2cC7GX8wPCLWvZTunmQYAWC0AcYwCoZaCIAW1uM7ER20DofQAm16+xl0Nhi+i8Jh7gGN7IHW7oBGziYDgRUQgK5cIta9oKlG0NVCoAulQQfQ4lp/hmweqHJ3AQJ89x8O9jQCmup9AgS0dCdoag80SnkBCAjZAwp30Lox0FosUOMb320D6GaB4tsMCEAjXqANEaARX2LuuQSdkdYHBNQMgxvfGC4HXmKwA97hd38wp4HHPxge+l1ksEZvfIHcTM7J99e/Mly+/JXhHK39DBplI9UOA14GEw0uBl16xwfw1vV/oINZibEXtGsStHuSYRTgDYHRKcjRBDLkQgC0sB40wuABBNgcDzq9ndTdX/QIBNA0IOg4DVDjkNCaJdCasRwoAOkBVeY3gAA0QgbaYfkRCECL6kFHSoAuJFcFAtAUGb7djdj8CDIXtIicluuW6BG274AANPUGGm0EXc5NKztB4eQABKCpcGIat2ZQAOo0gOIPNIIGavCCGlagBh3oiBTQOkDQgnoVIADt3AStccR3ryO630BrvUCjZKCRQFr4+/Z3huueFxjM5moyrLPgZ7AdbAXGwfcMuzNvMkSCdnCiuw20xsyLjEvDV71iWEgPf574xHD4CXBUSYaDQY4U+0AHytbfZyikd1yAdkMCjwapZ2ZkYMZnN0gdaPckwyjAGwKjDbDRBDIkQwDUmMHVABvoxff4AhR0lhnorkjQNBW+AzSRzQBV0O5QQM3IAo2wlQABPXbu0SORHQaCRiigpX2gxq8XEDQAAWjUiVi7NKCAmm57DgSgjQggv9PSz+/+MLwBTUcWyDHUAHc3VlPraAhK3PzzH8NP4LllddOfMvSARmewmRUkyhBN6uL+v/8Z/gJHppbSI82C3L3uNcPSPFmGSlLsAx0o2/KAofw3np2ltHA/8FiJZzvfMmzyEmEIxGU+KPxGz/4iLvRHpyAZRsFQDAHQAvtHQIDudtCibNCuwsHsJ9CRE6DRKtAxFfimUmnlB9Doix8Q5AHBcGl8wcIKdPYV6O5QWsf/XyAAnfMGmroFjWgNRHoDnT8GugOS1o0vmN9AxwmAFqX7XGSwvPCZ4cxA5rHDHxj2upxnMJj2lKELV+ML5L4ocdLP/tr/nmHn698ML+jlP3Lu4ATtMAUdLDsQcUBoAwDo3C9QQ220ZiUcAsNuBKzgNkMCCA+XyNfmZjDYY8hwfjQxo4YAqAIEXTeDfqXPYB79QvYBaKcj6DR30GGaoHU79DiQFXRsA2jUCxRmIPZwTFOgdAG6mB20TovQTllq+B+0c1QPCEqggB8IaB2uIL+BFtvvAYKBiMOLXxjOeF5kMAOd11Uhz9ACOiCUXu4Arc0CjfwAF4RvJ2SnLjeDETlHCtBr+hHmftAUL6hBC1rbRUo4gs4EA56xtobeaeDQB4Y9oDWBuDY2jI5+ER8joyNgoy2bIRsCoHvukHftgdZGLQGCoeQh0GJ50G450HoiUGVOC7eD7sPsBALQlGclEAzXxhcs7ECL8UGL8umVDkDruECNWlD41gEBra5wAo3sgtbrGQHBQDW+kML0/8Y3DCuszjKoJV1nCDr2geEALcP79CeGY6nXGUKdgaNexDS+QG4h5+R74PEVH4BTbBvpXYasfc2whFQ7QQfLgg6YpbdbQSOOS18wYL0zFLSeDbRbkmEUEBUCNB0B4wTe5TUaD5SFAAcNw/DbX4avtIof0EgEaK0MNvNxXapNqltAFd1yIABVSiC9oOMpqGU2yBxc7gf5jdrhthsKQJU4aAQHdN4UaJqS3AXloEbXPiAArTnbBgS0Ol7iOxDgCifQkSEDlf83AQFo9yCuhhgt3AYa1QRd0A26IBvUoAZtCnAFAkJHgOAKI9D0NGhKHXSsBKhjMVBTnfjiEFQZb3/LsB6E5TkYlD2FGQJAh4UCR3NMCS3UJpQ2rn5huLjjHcNG0Gn6oENcSUlLoIu3XQQZvD/9QT2QlZAZoKMnfv1n+EnvdLseeGMA8KT5OlLDDHRbwcxnDH0g94LWg5HiX+Aauh/k+nP5S4Z5GdIMxejuXfiCYTq+KWFCaYkU9wPrry+E3A8Mk9+kpgF6xj3jcxuG/7SyELhzxvzCF4ZTDKOA7BCwE2BwXanDsIsWQQhKmOonGARGo2dwhgBoOgt0cj3ovkHQLkfQLjl+KABdAA1qRIB20oFGtEDr4UC7Q0HneYFG1a4CwUCsLxtNS5ghAFp7D7oySRUK5IEAtHsVdMYXKB5BcQhqxIJ2u96BAtCBrqARL9DuzqEYplxMDDyGvAxmxrwMFoqcDCrA6SolaXYGWT5mBgHgongOLuAp+F/+MHz+CjzwFdQRBJ419vrxT4YHt78xXL/yleECcMTrKPBcr3ej6Wk0BIZzCDDes2T4BjpdlxaezLzBELXhDcPy0SREfgiALqXtUGGYRoswBF2UanCKQWo0fkZDYDQERkNgNARGQ2A0BOgbAkzYzk6hlhPoeafScE042sC7qWjlt/fAO9NGM9xoCIyGwGgIjIbAaAiMhgD9Q4CJlttF7QUY3EYjlbIQcKBhGL74xfBsNH5GQ2A0BEZDYDQERkNgNAQGoAFGyysmQCNgKpwMGqMRS14IGPIwmMtyMCjQKvxAay5G42Y0BEZDYDQERkNgNARGQ4D+IcAE3F1yk5bWpkoxFIxGLHkhkC5N26sm7nxjuDEaN6MhMBoCoyEwGgKjITAaAgPQAAMebHeJltaC7qxS5GBQHY1c0kJAh5vB0E+EIYyW4XbtK8Ol0XgZDYHREBgNgdEQGA2B0RAYgAbY+c+0PSaClYmBtVuFYSYjA8Pooa9Exi/wnjXWLlCYMTIw0ipJ/P/P8B90ovVophsNgdEQGA2B0RAYDYHREBiABtizXwyPQafX0tJqawEGxxI5hobRCCYuBBoUGXqBZ+iY0jK8rn9juPz5L2mHFI7G32gIjIbAaAiMhsBoCIyGAHVCADwqBbzbaTetA7RIjqEWdKbVaMThD4FcGYbKZCmGXFqH08H3DLtH42I0BEZDYDQERkNgNARGQ2BgQoAZZC3oOgF/UYZwWjvBRYjBG2ghy/GPDIeAx+//H410RAiAwqVRkaGvQI6hmh7h0vGQoWZ0F+RoChwNgdEQGA2B0RAYDYGBCQHwGiPQfYNXzRleA6+H4KaHM459ZDhYcpsh9f4PhtujEc/AoM7FoNOvyjAXdHUHPcLjzW+G1/onGST/MTD8HQ3/0RAYDYHREBgNgdEQGA0B+ocAeAryxz+G75vfMKyhl/VW/Az2B40YrnYqM8xQ5WTQHKkRr8XNoD9BlWHBXkOGC/RqfIHCGnS57Wjja7S4GQ2B0RAYDYHREBgNgYELAfguO3M+BtsNegyHBsIpV74wXDj8gWHv5a8M50AHw375C7yk9S/Dl+GUMHiYGXhBWIGDQVmPh8EYeMm2izo3g/ZA+NHxHIPeDeAi/NGMNxoCoyEwGgKjITAaAqMhMDAhgHLMwS4DhnO6PAyGo5ExfEPg2AeGA8FXGBxH43g0BEZDYDQERkNgNARGQ2DgQgDlbK5pTxi6RyNjeIfA1KcMXaNxPBoCoyEwGgKjITAaAqMhMLAhgDICBjos9YARwxU1rpG7Lms4J8hznxlOel9ksBjNdKMhMBoCoyEwGgKjITAaAgMbAsxo1v9/9YvhOT2OpBiNePqHQO4thnjg0RP3R8N+NARGQ2A0BEZDYDQERkNgYEMA43qgbW8Z1h39wLB/NGKGVwhse8Ow/uhHhn2j8ToaAqMhMBoCoyEwGgKjITDwIYD1rkEVTgaNPcCjEdiZGNhHI2noh8CXPwyfHc4z6Dz9yfBoND5HQ2A0BEZDYDQERkNgNAQGPgSYsTnh3R+GN3//M/y1FWBwHo2koR8CdfcYCg9/ZNg7GpejITAaAqMhMBoCoyEwGgKDIwQYcTkDODfJvEaXYZ8lP4PdaGQN3RDY/Y5hS9w1Bj+gD0avfhpNyKMhMBoCoyEwGgKjITBIQoARnzvEWBkkgVOR50XZGMRHY2zohcDjHwwP3C4wGH/4w/BuNP5GQ2A0BEZDYDQERkNgNAQGTwgw4XPKq98Mz5OuMwT9/MfwczTShlYIfAXeJJBwnSFgtPE1mnJHQ2A0BEZDYDQERkNg8IUAMyEnPfvF8Pjud4ab3sIMwYyMDIyjkTj4Q+D3P4bfoIbz6c8MR0fjazQERkNgNARGQ2A0BEZDYAg2wEBOvvWN4drr3wwvXYUYfEYjcXCHwL//DP+A533F7XjHsGE0rkZDYDQERkNgNARGQ2A0BAZnCDAT66xLXxjOAg9pfeEsyOA1OhI2OCMTNPKVd5shfsMbhuWjGW40BEZDYDQERkNgNARGQ2DwhgAzKU4DNcJuf2e47ibE4MfCyMAyGrGDJwS+/WX4mnKDIRh0kO5ovIyGwGgIjIbAaAiMhsBoCAzuECBrTZcpL4P1XE2GtaO7IwdH5D75wfAIuOYr8PJXhnOjGW40BEZDYDQERkNgNARGQ2DwhwDZi+pBR1TM0GBYMXpO2MBG8r73DDtybjLEvP/D8HY0w42GwGgIjIbAaAiMhsBoCAyNEGAm15lf/zF8Wf2KYTHwiIof5nwMtsyMDMyjkU6/EPj+l+F7432Gkpp7DPk//jF8Gw370RAYDYHREBgNgdEQGA2BoRMCVDlWAnR3ZKcKwwwrfgb70cinfQiARr0q7jBkPf7JcH80vEdDYDQERkNgNARGQ2A0BIZeCFD1XC8vYYagcnmGFjUuBs3RxED9ELjyheFC+0OGKmADbPto+I6GwGgIjIbAaAiMhsBoCAzdEKD6wapAA5mCRBmiMqQZinV4GAxGEwflIXDuM8PJ6U8Yera8ZVgLNG30TsfRRDUaAqMhMBoCoyEwGgJDPARoerI9aG1YjARDGnBkLJCLmYF7NLUQHwKf/zB82vKGYc2iFwwzL3xhODUadqMhMBoCoyEwGgKjITAaAsMnBOhytRAHEwOnkyCDJ+gQV3tBBjdpdgbZ0USEGQKPfjDcP/CeYdee9wxbDwLpX/9H7+AcTSejITAaAqMhMBoCoyEwHENgQO52BDbA5Ax5GMw0uRn0VLkYNGTYGeTF2RikBFkYhDmZGTiHc1IDHpj67d1vhjegi85BDa47wHs2r31luAiaZnz5i+HZaDYbDYHREBgNgdEQGA2B0RAY/iEAAPa2+jcAvVhsAAAAAElFTkSuQmCC;clipPath=inset(21.43% 0% 27.78% 24.33%);imageBorder=none;strokeWidth=2;" parent="JaSobmvrDUTWLf8hYepu-2" vertex="1">
          <mxGeometry width="608" height="85.70925110132158" as="geometry" />
        </mxCell>
        <mxCell id="JaSobmvrDUTWLf8hYepu-1" value="" style="rounded=0;whiteSpace=wrap;html=1;fillColor=none;strokeWidth=2;" vertex="1" parent="JaSobmvrDUTWLf8hYepu-2">
          <mxGeometry x="3" y="9.850000000000023" width="606" height="75" as="geometry" />
        </mxCell>
        <mxCell id="pxrJhPeLCdRWbbSAXVPi-18" value="" style="ellipse;whiteSpace=wrap;html=1;aspect=fixed;hachureGap=4;fontFamily=Architects Daughter;fontSource=https%3A%2F%2Ffonts.googleapis.com%2Fcss%3Ffamily%3DArchitects%2BDaughter;fillColor=#33FF33;strokeColor=default;movable=0;resizable=0;rotatable=0;deletable=0;editable=0;locked=1;connectable=0;" parent="1" vertex="1">
          <mxGeometry x="391" y="246" width="20" height="20" as="geometry" />
        </mxCell>
      </root>
    </mxGraphModel>
  </diagram>
</mxfile>
